<?xml version="1.0" encoding="UTF-8"?>
<svg version="1.1" xmlns="http://www.w3.org/2000/svg" width="1280" height="1280">
<path d="M0 0 C422.4 0 844.8 0 1280 0 C1280 422.4 1280 844.8 1280 1280 C857.6 1280 435.2 1280 0 1280 C0 857.6 0 435.2 0 0 Z " fill="#001831" transform="translate(0,0)"/>
<path d="M0 0 C12.87 0 25.74 0 39 0 C43 11 43 11 43 13 C43.66 13 44.32 13 45 13 C57 42.43231441 57 42.43231441 57 47 C57.66 47 58.32 47 59 47 C59.28721924 47.78648926 59.57443848 48.57297852 59.87036133 49.38330078 C60.94665045 52.32525891 62.02610832 55.26602978 63.10766602 58.20605469 C63.80141305 60.09481522 64.49155654 61.98489808 65.18164062 63.875 C65.84389648 65.67324219 65.84389648 65.67324219 66.51953125 67.5078125 C66.92276611 68.60754395 67.32600098 69.70727539 67.74145508 70.84033203 C68.96161802 74.04470713 68.96161802 74.04470713 70.61206055 77.16357422 C72.22148998 80.45264215 72.63760968 83.37609682 73 87 C73.66 87 74.32 87 75 87 C77.98530059 94.30520616 80.77746956 101.67712971 83.53515625 109.0703125 C83.77468018 109.71162109 84.0142041 110.35292969 84.26098633 111.01367188 C84.77452452 112.39396482 85.28452454 113.77557722 85.79174805 115.15820312 C86.95075112 118.298774 88.14267856 121.27478833 89.6875 124.25 C91 127 91 127 91 131 C91.66 131 92.32 131 93 131 C93.56267578 132.64935547 93.56267578 132.64935547 94.13671875 134.33203125 C96.77987536 141.99414731 99.54581836 149.42165656 103.03125 156.75 C104.19968055 159.46377417 104.76144249 162.05779072 105 165 C105.66 165 106.32 165 107 165 C107.66 168.3 108.32 171.6 109 175 C109.66 175 110.32 175 111 175 C111.38671875 176.03898438 111.7734375 177.07796875 112.171875 178.1484375 C115.68439379 187.56492911 119.28099198 196.92615277 123.1875 206.1875 C125.72806764 212.25182708 128.1139501 218.37345735 130.5 224.5 C134.53705171 234.85911773 138.62473552 245.16642528 143.30078125 255.2578125 C144 257 144 257 144 259 C131.13 259 118.26 259 105 259 C101.67883212 252.35766423 101.67883212 252.35766423 100.625 248.375 C99.22396683 243.49679124 97.3522645 238.933961 95.36328125 234.26953125 C93.6900881 230.25674423 92.16624094 226.19707909 90.65527344 222.12084961 C88.91152583 217.42217726 87.1386665 212.73557986 85.34765625 208.0546875 C76.69076233 185.41468834 76.69076233 185.41468834 73.05078125 174.09765625 C70.99706543 168.04339364 68.38982342 162.21604191 65.85546875 156.3515625 C65 154 65 154 65 151 C64.34 151 63.68 151 63 151 C62.8141333 150.43192627 62.6282666 149.86385254 62.43676758 149.27856445 C59.22963907 139.50102289 56.02836069 129.74535067 52.24609375 120.171875 C51.05189406 117.13209397 49.90594502 114.07854391 48.77099609 111.01635742 C44.09014145 98.1752811 44.09014145 98.1752811 38.3125 85.8125 C37 83 37 83 36.21875 79.140625 C34.86542607 72.83887308 32.48868121 66.9432375 30.1875 60.9375 C20 33.91441391 20 33.91441391 20 29 C19.34 29 18.68 29 18 29 C17.88011719 30.14855469 17.76023437 31.29710937 17.63671875 32.48046875 C17.08190957 36.89086286 16.04235937 41.04745678 14.8125 45.3125 C14.59182861 46.08883789 14.37115723 46.86517578 14.14379883 47.66503906 C8.98416443 65.63448931 3.12079681 83.40182391 -3.90625 100.734375 C-6.30258632 106.67628721 -8.47564029 112.69855246 -10.66088867 118.72033691 C-17.15083107 136.59818679 -17.15083107 136.59818679 -20.5 144.75 C-22.36401141 149.30116175 -23.89650261 153.81118979 -25.22265625 158.54296875 C-26.14192589 161.44859992 -27.30048217 164.19875214 -28.5 167 C-30.39625565 171.42838146 -31.9581236 175.80767345 -33.2265625 180.453125 C-34.74586193 185.45607061 -36.71448661 190.30147617 -38.6484375 195.15625 C-41.83282302 203.15105133 -44.75425804 211.12978764 -47.22387695 219.37426758 C-48.76180817 224.43543636 -50.70584889 229.21720245 -52.8125 234.0625 C-54.48122501 238.19039872 -55.70470878 242.41626943 -56.91015625 246.69921875 C-58.30141604 250.91289087 -60.19779578 254.94504051 -62 259 C-73.88 259 -85.76 259 -98 259 C-94.73105904 247.01388315 -94.73105904 247.01388315 -92.02734375 241.21875 C-88.08151708 232.69696465 -85.00433139 223.75519455 -81.73144531 214.95849609 C-81.2496803 213.66853651 -80.7647314 212.37976085 -80.27636719 211.09228516 C-77.8687158 204.73653431 -75.653059 198.31658364 -73.4296875 191.89453125 C-73.130625 191.03472656 -72.8315625 190.17492187 -72.5234375 189.2890625 C-72.25450684 188.51256348 -71.98557617 187.73606445 -71.70849609 186.93603516 C-71 185 -71 185 -70 183 C-69.34 183 -68.68 183 -68 183 C-67.88011719 182.15566406 -67.76023437 181.31132813 -67.63671875 180.44140625 C-65.78597402 170.43830129 -61.71097997 161.10481189 -57.33984375 151.984375 C-55.7996191 148.55367053 -54.76707387 145.13753662 -53.7734375 141.51953125 C-52.56625747 137.58705084 -50.88240494 133.8704842 -49.26171875 130.09375 C-47.59324446 126.00263037 -46.26326356 121.82736457 -44.90625 117.625 C-43.86082766 114.59688012 -42.4849472 111.8348992 -41 109 C-40.33154309 107.00059764 -39.66528051 105.00046152 -39 103 C-37.9057332 100.07128984 -36.76574727 97.16087234 -35.625 94.25 C-35.33367188 93.50234375 -35.04234375 92.7546875 -34.7421875 91.984375 C-33.18890369 88.00578841 -31.61222476 84.03794732 -30.01171875 80.078125 C-27.94770014 74.92803996 -26.05894199 69.7225413 -24.1875 64.5 C-21.5886085 57.30665054 -18.94764452 50.1331761 -16.1875 43 C-15.90994873 42.27748047 -15.63239746 41.55496094 -15.34643555 40.81054688 C-14.14060717 37.71811555 -12.88063994 34.76272492 -11.38671875 31.79296875 C-10.13687031 29.27566837 -9.33268172 27.01915281 -8.625 24.3125 C-7.27415118 19.55951341 -5.36887988 15.26097172 -3.18359375 10.8359375 C-1.59487188 7.22853991 -1.59487188 7.22853991 0 0 Z " fill="#FAFBFB" transform="translate(617,459)"/>
<path d="M0 0 C422.4 0 844.8 0 1280 0 C1280 422.4 1280 844.8 1280 1280 C857.6 1280 435.2 1280 0 1280 C0 857.6 0 435.2 0 0 Z M2 3 C1.90018891 5.77210603 1.86673379 8.51934607 1.87465084 11.29197311 C1.87324852 12.17782738 1.8718462 13.06368164 1.87040139 13.97637998 C1.86687978 16.98986506 1.87057938 20.00330022 1.87415886 23.01678467 C1.87311718 25.19036302 1.87163702 27.36394119 1.86975449 29.53751898 C1.86582686 35.56788957 1.86820784 41.59824436 1.87153245 47.62861472 C1.87379274 53.49426133 1.8713635 59.35990473 1.8690554 65.22555104 C1.86444408 77.37770933 1.86461088 89.52986343 1.86733627 101.68202209 C1.87008313 114.00476669 1.87067141 126.32750854 1.86859894 138.6502533 C1.86846977 139.42724614 1.86834059 140.20423898 1.86820751 141.00477706 C1.86767426 144.16910881 1.86712556 147.33344057 1.86655723 150.49777231 C1.86126158 180.0034389 1.86091197 209.50910365 1.86370468 239.01477051 C1.86378748 239.8899349 1.86387027 240.76509929 1.86395558 241.66678381 C1.86403851 242.54333797 1.86412144 243.41989213 1.86420688 244.32300854 C1.8667269 270.99394439 1.86738292 297.66487948 1.86618423 324.33581543 C1.86610676 326.11964567 1.8660296 327.9034759 1.86595276 329.68730614 C1.86564232 336.85521445 1.86532365 344.02312277 1.864993 351.19103108 C1.86407585 371.23011691 1.86350535 391.26920273 1.86320686 411.30828857 C1.86319322 412.22093183 1.86317957 413.13357508 1.86316551 414.07387419 C1.86275604 443.16832917 1.86388411 472.26278388 1.86605644 501.35723877 C1.86612669 502.30132707 1.86619694 503.24541537 1.86626932 504.21811241 C1.86741436 519.55090485 1.86863378 534.88369729 1.86985949 550.21648972 C1.87471608 611.03365014 1.87449067 671.85080835 1.86962891 732.66796875 C1.86840778 747.99289957 1.86719676 763.3178304 1.86605644 778.64276123 C1.86598599 779.58628643 1.86591555 780.52981163 1.86584296 781.5019285 C1.8636878 810.56518951 1.86277231 839.62845034 1.86320686 868.69171143 C1.86322045 869.60369024 1.86323403 870.51566906 1.86324803 871.4552836 C1.86356046 891.4718528 1.86419402 911.48842197 1.86511737 931.50499115 C1.86544653 938.66661236 1.86575961 945.82823358 1.86606808 952.9898548 C1.86614547 954.77159031 1.8662242 956.55332582 1.86630427 958.33506132 C1.86749942 985.00111327 1.86647842 1011.66716435 1.86395558 1038.33321619 C1.86387278 1039.20838058 1.86378999 1040.08354497 1.86370468 1040.98522949 C1.863622 1041.85878979 1.86353932 1042.73235009 1.86345413 1043.63238192 C1.86070017 1073.05036407 1.86170182 1102.468344 1.86698543 1131.88632584 C1.86753782 1135.04079946 1.86807452 1138.19527308 1.86859894 1141.3497467 C1.86872914 1142.12394368 1.86885935 1142.89814065 1.8689935 1143.69579814 C1.87097125 1155.98909482 1.86958698 1168.28238875 1.86682993 1180.57568518 C1.86419431 1192.64332506 1.86509546 1204.71096029 1.86984402 1216.77859958 C1.87223961 1223.24251953 1.87300166 1229.706429 1.86943804 1236.17034864 C1.86623656 1242.03674165 1.86753783 1247.90311476 1.8726187 1253.76950628 C1.8736359 1255.89199653 1.87293389 1258.01448838 1.87041276 1260.13697737 C1.86725675 1262.99401875 1.87012811 1265.85098896 1.87465084 1268.70802689 C1.87226009 1269.54528855 1.86986935 1270.38255022 1.86740616 1271.24518345 C1.52866148 1274.92369445 1.52866148 1274.92369445 3 1278 C5.77210603 1278.09981109 8.51934607 1278.13326621 11.29197311 1278.12534916 C12.17782738 1278.12675148 13.06368164 1278.1281538 13.97637998 1278.12959861 C16.98986506 1278.13312022 20.00330022 1278.12942062 23.01678467 1278.12584114 C25.19036302 1278.12688282 27.36394119 1278.12836298 29.53751898 1278.13024551 C35.56788957 1278.13417314 41.59824436 1278.13179216 47.62861472 1278.12846755 C53.49426133 1278.12620726 59.35990473 1278.1286365 65.22555104 1278.1309446 C77.37770933 1278.13555592 89.52986343 1278.13538912 101.68202209 1278.13266373 C114.00476669 1278.12991687 126.32750854 1278.12932859 138.6502533 1278.13140106 C139.81574256 1278.13159482 139.81574256 1278.13159482 141.00477706 1278.13179249 C144.16910881 1278.13232574 147.33344057 1278.13287444 150.49777231 1278.13344277 C180.0034389 1278.13873842 209.50910365 1278.13908803 239.01477051 1278.13629532 C239.8899349 1278.13621252 240.76509929 1278.13612973 241.66678381 1278.13604442 C242.54333797 1278.13596149 243.41989213 1278.13587856 244.32300854 1278.13579312 C270.99394439 1278.1332731 297.66487948 1278.13261708 324.33581543 1278.13381577 C326.11964567 1278.13389324 327.9034759 1278.1339704 329.68730614 1278.13404724 C336.85521445 1278.13435768 344.02312277 1278.13467635 351.19103108 1278.135007 C371.23011691 1278.13592415 391.26920273 1278.13649465 411.30828857 1278.13679314 C412.22093183 1278.13680678 413.13357508 1278.13682043 414.07387419 1278.13683449 C443.16832917 1278.13724396 472.26278388 1278.13611589 501.35723877 1278.13394356 C502.30132707 1278.13387331 503.24541537 1278.13380306 504.21811241 1278.13373068 C519.55090485 1278.13258564 534.88369729 1278.13136622 550.21648972 1278.13014051 C611.03365014 1278.12528392 671.85080835 1278.12550933 732.66796875 1278.13037109 C747.99289957 1278.13159222 763.3178304 1278.13280324 778.64276123 1278.13394356 C779.58628643 1278.13401401 780.52981163 1278.13408445 781.5019285 1278.13415704 C810.56518951 1278.1363122 839.62845034 1278.13722769 868.69171143 1278.13679314 C869.60369024 1278.13677955 870.51566906 1278.13676597 871.4552836 1278.13675197 C891.4718528 1278.13643954 911.48842197 1278.13580598 931.50499115 1278.13488263 C938.66661236 1278.13455347 945.82823358 1278.13424039 952.9898548 1278.13393192 C954.77159031 1278.13385453 956.55332582 1278.1337758 958.33506132 1278.13369573 C985.00111327 1278.13250058 1011.66716435 1278.13352158 1038.33321619 1278.13604442 C1039.20838058 1278.13612722 1040.08354497 1278.13621001 1040.98522949 1278.13629532 C1042.29556994 1278.13641934 1042.29556994 1278.13641934 1043.63238192 1278.13654587 C1073.05036407 1278.13929983 1102.468344 1278.13829818 1131.88632584 1278.13301457 C1135.04079946 1278.13246218 1138.19527308 1278.13192548 1141.3497467 1278.13140106 C1142.12394368 1278.13127086 1142.89814065 1278.13114065 1143.69579814 1278.1310065 C1155.98909482 1278.12902875 1168.28238875 1278.13041302 1180.57568518 1278.13317007 C1192.64332506 1278.13580569 1204.71096029 1278.13490454 1216.77859958 1278.13015598 C1223.24251953 1278.12776039 1229.706429 1278.12699834 1236.17034864 1278.13056196 C1242.03674165 1278.13376344 1247.90311476 1278.13246217 1253.76950628 1278.1273813 C1255.89199653 1278.1263641 1258.01448838 1278.12706611 1260.13697737 1278.12958724 C1262.99401875 1278.13274325 1265.85098896 1278.12987189 1268.70802689 1278.12534916 C1269.54528855 1278.12773991 1270.38255022 1278.13013065 1271.24518345 1278.13259384 C1274.92369445 1278.47133852 1274.92369445 1278.47133852 1278 1277 C1278.09943584 1274.22537025 1278.13250655 1271.4755997 1278.1241985 1268.70046419 C1278.12547658 1267.81379127 1278.12675467 1266.92711834 1278.12807148 1266.01357655 C1278.13117099 1262.99730175 1278.12704899 1259.98107782 1278.12304783 1256.96480465 C1278.1237865 1254.78921831 1278.12496404 1252.61363208 1278.12654433 1250.43804619 C1278.12963511 1244.4021064 1278.12642033 1238.36618326 1278.12226619 1232.33024471 C1278.11920202 1226.45919596 1278.12083386 1220.58814981 1278.12234976 1214.71710074 C1278.12532208 1202.55378011 1278.12353511 1190.39046427 1278.11920547 1178.22714424 C1278.11483435 1165.8931129 1278.11263208 1153.55908402 1278.11310768 1141.22505188 C1278.11313637 1140.44734862 1278.11316507 1139.66964535 1278.11319463 1138.86837533 C1278.11335099 1134.90318416 1278.11354294 1130.937993 1278.11374746 1126.97280183 C1278.11515668 1098.23835636 1278.1117182 1069.5039131 1278.10573006 1040.76946831 C1278.09981212 1012.30400011 1278.09595588 983.83853285 1278.09487724 955.37306404 C1278.09484283 954.48976967 1278.09480842 953.60647529 1278.09477296 952.69641442 C1278.09445978 944.62914728 1278.09417208 936.56188015 1278.09391499 928.49461301 C1278.09327551 908.43827553 1278.09231613 888.38193808 1278.09113979 868.32560062 C1278.09105982 866.95546061 1278.09105982 866.95546061 1278.09097823 865.55764101 C1278.08835528 821.10035732 1278.08204714 776.64307426 1278.07543945 732.18579102 C1278.07314784 716.75378418 1278.0708725 701.32177735 1278.06866455 685.88977051 C1278.0685276 684.93270518 1278.06839065 683.97563986 1278.06824955 682.98957256 C1278.06190811 638.51671174 1278.05818073 594.04385081 1278.05512976 549.57098965 C1278.05493169 546.68457567 1278.0547325 543.79816169 1278.05453308 540.9117477 C1278.05321332 521.78369242 1278.05193867 502.65563714 1278.05069422 483.52758186 C1278.04821757 445.46592348 1278.04547588 407.40426512 1278.04255217 369.34260677 C1278.04241293 367.52991931 1278.04227388 365.71723185 1278.04213501 363.90454439 C1278.03588013 282.27807811 1278.02654163 200.65161229 1278.01586914 119.02514648 C1278.01576921 118.26065938 1278.01566927 117.49617227 1278.01556631 116.70851889 C1278.01056561 78.4723459 1278.00538907 40.23617294 1278 2 C1238.99161787 1.99450209 1199.9832357 1.98923012 1160.97485352 1.98413086 C1160.21157005 1.98403106 1159.44828658 1.98393126 1158.66187331 1.98382844 C1076.90079798 1.9731445 995.13972265 1.96392051 913.37864685 1.95765686 C911.56321523 1.95751741 909.7477836 1.95737796 907.93235197 1.95723851 C869.82881989 1.95431603 831.72528779 1.9515993 793.62175567 1.94912032 C774.48205938 1.94787489 755.3423631 1.94658992 736.20266682 1.94526756 C733.31545447 1.94506831 730.42824212 1.94487019 727.54102976 1.94467212 C683.06409613 1.94161091 638.58716278 1.93769978 594.11022949 1.93133545 C593.15340237 1.93119855 592.19657524 1.93106165 591.21075335 1.9309206 C575.78314691 1.92870814 560.35554048 1.92642457 544.92793406 1.92413156 C500.51008924 1.91753082 456.09224463 1.91145291 411.67439938 1.90886021 C410.30525657 1.9087799 410.30525657 1.9087799 408.90845431 1.90869798 C388.87464888 1.90753241 368.84084344 1.90663747 348.80703799 1.90599902 C340.74700398 1.90573738 332.68696997 1.90543676 324.62693596 1.90512276 C323.30370454 1.90507262 323.30370454 1.90507262 321.95374117 1.90502146 C293.49615977 1.90392371 265.03857994 1.89964823 236.58099917 1.89371779 C207.93176342 1.88776188 179.28252918 1.88489831 150.6332928 1.88637601 C146.68051124 1.88657911 142.72772968 1.88674649 138.77494812 1.88689232 C138.00004307 1.8869222 137.22513803 1.88695208 136.42675101 1.88698287 C124.1221918 1.88736455 111.81763577 1.88437005 99.51307743 1.87999014 C87.43435204 1.87575922 75.35563082 1.87504948 63.27690504 1.87816819 C56.80702773 1.87968872 50.33716115 1.87956961 43.86728496 1.87511682 C37.99547494 1.87110601 32.12368414 1.8715949 26.25187445 1.87586002 C24.12742046 1.87658133 22.00296512 1.87558289 19.87851288 1.87276476 C17.01882965 1.86920827 14.15921667 1.87167944 11.29953581 1.8758015 C10.46149676 1.87329263 9.6234577 1.87078375 8.76002352 1.86819885 C5.07878865 1.52841084 5.07878865 1.52841084 2 3 Z " fill="#00050C" transform="translate(0,0)"/>
<path d="M0 0 C5.56818182 0.56818182 5.56818182 0.56818182 7 2 C8.89056785 20.09986266 3.49556104 39.30368744 -0.16796875 56.91796875 C-0.86306557 60.26664985 -1.4665055 63.62120147 -2 67 C-0.87980469 66.95359375 0.24039063 66.9071875 1.39453125 66.859375 C2.86716085 66.82185577 4.33981927 66.78545577 5.8125 66.75 C6.55048828 66.71648437 7.28847656 66.68296875 8.04882812 66.6484375 C13.50133556 66.54974958 13.50133556 66.54974958 16.01171875 68.81640625 C17.57380218 72.26780797 16.95528348 74.35798172 16 78 C14.84666218 80.30667564 13.58067452 82.51226741 12.265625 84.73046875 C11.06903622 86.87620357 10.19348773 88.93820754 9.375 91.25 C8.18342207 94.499758 6.86920666 97.11122607 5 100 C4.67 100.66 4.34 101.32 4 102 C3.34 102 2.68 102 2 102 C2 102.99 2 103.98 2 105 C1.01 105 0.02 105 -1 105 C-0.67 105.99 -0.34 106.98 0 108 C-0.890625 110.6640625 -0.890625 110.6640625 -2.25 113.625 C-2.68828125 114.60726562 -3.1265625 115.58953125 -3.578125 116.6015625 C-5 119 -5 119 -8 120 C-9.15312557 123.04676886 -9.15312557 123.04676886 -10 126.6875 C-11.21635962 131.48705234 -12.64149921 135.63811359 -15 140 C-15.66 140 -16.32 140 -17 140 C-17.11214844 140.57234375 -17.22429688 141.1446875 -17.33984375 141.734375 C-18.07223034 144.24789112 -19.13854853 146.05930543 -20.5625 148.25 C-21.01753906 148.95640625 -21.47257813 149.6628125 -21.94140625 150.390625 C-22.29074219 150.92171875 -22.64007812 151.4528125 -23 152 C-24.32 151.34 -25.64 150.68 -27 150 C-27 149.34 -27 148.68 -27 148 C-27.66 148 -28.32 148 -29 148 C-29.81257878 136.48846731 -27.17068822 125.78616427 -24.1015625 114.77734375 C-21.72463722 106.22276614 -21.30340327 97.83008133 -21 89 C-22.53720703 89.05220703 -22.53720703 89.05220703 -24.10546875 89.10546875 C-25.46612936 89.13362035 -26.8268078 89.16091904 -28.1875 89.1875 C-28.86103516 89.21263672 -29.53457031 89.23777344 -30.22851562 89.26367188 C-34.66105228 89.32853827 -37.65098307 89.00843894 -41 86 C-42.67288223 81.16421897 -41.63279667 78.16955366 -39.5625 73.625 C-39.08941406 72.56539062 -38.61632812 71.50578125 -38.12890625 70.4140625 C-37.75636719 69.61742187 -37.38382813 68.82078125 -37 68 C-36.01 68 -35.02 68 -34 68 C-33.9175 67.360625 -33.835 66.72125 -33.75 66.0625 C-32.45530057 60.77581066 -30.1548422 55.88196506 -27.3125 51.25 C-25.89326542 48.81702644 -25.3960769 46.77253833 -25 44 C-24.34 44 -23.68 44 -23 44 C-23 43.34 -23 42.68 -23 42 C-22.34 42 -21.68 42 -21 42 C-20.731875 40.865625 -20.46375 39.73125 -20.1875 38.5625 C-19.795625 37.386875 -19.40375 36.21125 -19 35 C-17.515 34.505 -17.515 34.505 -16 34 C-15.34116675 32.24341721 -15.34116675 32.24341721 -15 30 C-13.05262728 22.5400645 -10.95497635 16.19727867 -6.38671875 9.9375 C-4.60120577 7.44281144 -3.34226014 4.7516333 -2 2 C-1.34 1.34 -0.68 0.68 0 0 Z " fill="#405772" transform="translate(643,556)"/>
<path d="M0 0 C0.33 0 0.66 0 1 0 C0.75289951 8.599097 -0.12524938 16.32318771 -2.41479492 24.65087891 C-4.10741485 30.97172073 -5.05095876 37.33624095 -5.87255859 43.82299805 C-6.69085064 49.95141653 -8.16862693 54.8954231 -10 61 C-2.08 61 5.84 61 14 61 C11.74394442 67.76816674 10.72998945 70.68759079 7 76 C4.70379303 80.20832114 2.68403741 84.50923357 1 89 C0.34 89 -0.32 89 -1 89 C-1.103125 89.721875 -1.20625 90.44375 -1.3125 91.1875 C-2.07095686 94.29027805 -3.35093089 96.27269339 -5 99 C-6.08887438 101.64088989 -7.0415869 104.30731558 -8 107 C-8.66 107 -9.32 107 -10 107 C-10.33 108.98 -10.66 110.96 -11 113 C-11.66 113 -12.32 113 -13 113 C-13.268125 113.825 -13.53625 114.65 -13.8125 115.5 C-15.12524922 119.36915561 -16.55101284 123.17994294 -18 127 C-18.66 127 -19.32 127 -20 127 C-20.185625 128.2065625 -20.185625 128.2065625 -20.375 129.4375 C-20.58125 130.283125 -20.7875 131.12875 -21 132 C-21.66 132.33 -22.32 132.66 -23 133 C-22.33986113 125.93651405 -21.0835258 119.12586175 -19.625 112.1875 C-17.80222488 103.33711076 -16.20082141 94.50076155 -14.98876953 85.5456543 C-14.8854834 84.79711182 -14.78219727 84.04856934 -14.67578125 83.27734375 C-14.59239502 82.64046631 -14.50900879 82.00358887 -14.4230957 81.34741211 C-13.79473296 77.86114106 -12.85916942 74.43667768 -12 71 C-19.59 71 -27.18 71 -35 71 C-35 70.01 -35 69.02 -35 68 C-34.34 68 -33.68 68 -33 68 C-32.88140625 67.2575 -32.7628125 66.515 -32.640625 65.75 C-32.01002 63.04301266 -31.19741487 61.34517852 -29.75 59 C-26.43557836 53.28914522 -24.24860158 47.19083073 -22 41 C-21.34 41 -20.68 41 -20 41 C-19.6596875 39.576875 -19.6596875 39.576875 -19.3125 38.125 C-17.32978516 31.23402604 -13.69503829 25.05962504 -9.9375 19 C-7.40716982 14.88659145 -5.57766366 10.77025336 -3.95703125 6.2265625 C-2.9237677 3.82264322 -1.68810317 1.99296278 0 0 Z " fill="#F5F8F9" transform="translate(642,569)"/>
<path d="M0 0 C1.32 0 2.64 0 4 0 C4 0.66 4 1.32 4 2 C4.598125 2.0825 5.19625 2.165 5.8125 2.25 C8.79242304 3.2716879 9.48162677 4.23171952 11 7 C11.08211028 9.79468205 11.00967889 12.30068155 10.75 15.0625 C10.69134766 15.8153125 10.63269531 16.568125 10.57226562 17.34375 C10.45204235 18.85623633 10.32454256 20.36816345 10.18945312 21.87939453 C10.02138307 23.76065293 9.87620496 25.64392532 9.734375 27.52734375 C9.15763195 34.84236805 9.15763195 34.84236805 8 36 C7.835 37.155 7.67 38.31 7.5 39.5 C7 43 7 43 6 44 C5.65034118 45.88933295 5.3453517 47.78701712 5.0625 49.6875 C4.38047388 53.98833635 3.46668565 57.89328019 2 62 C1.63079809 63.99369031 1.28674418 65.99279077 1 68 C1.66 67.67 2.32 67.34 3 67 C5.1423215 66.85166349 7.29024129 66.77872587 9.4375 66.75 C11.16806641 66.71132813 11.16806641 66.71132813 12.93359375 66.671875 C16 67 16 67 17.80859375 68.4375 C18.39833984 69.2109375 18.39833984 69.2109375 19 70 C19.53625 70.4125 20.0725 70.825 20.625 71.25 C22.89079217 74.13373549 22.94131458 76.36150401 23 80 C21.26947614 85.5901754 18.22399822 90.16400267 15 95 C14.690625 95.928125 14.38125 96.85625 14.0625 97.8125 C13.11825306 100.64524083 12.04263895 102.80678271 10.5625 105.375 C8.88582907 108.28711266 7.5285972 111.07262904 6.4375 114.25 C5.51410061 116.90542538 4.83917949 118.196 3 120.4375 C0.63970017 123.46163416 -0.17220156 126.23726975 -1.29296875 129.86328125 C-2.6444595 133.94762068 -4.7408976 136.71622118 -7.625 139.875 C-10.27409736 142.79021139 -10.27409736 142.79021139 -10.3125 146.3125 C-11.35745519 151.91725967 -14.65781299 155.41731213 -19 159 C-21.5935163 159.98592474 -23.18402964 160.05866605 -26 160 C-26.495 159.01 -26.495 159.01 -27 158 C-28.64363134 157.27840576 -30.31050386 156.60648579 -32 156 C-32.44817044 147.23577815 -31.2821481 139.17100667 -29.52246094 130.625 C-28.89958363 127.49547814 -28.32701773 124.35847563 -27.7578125 121.21875 C-27.54020264 120.02000244 -27.32259277 118.82125488 -27.09838867 117.58618164 C-26.66480148 115.19240235 -26.23262451 112.79836711 -25.80200195 110.40405273 C-24.78230531 104.83617897 -23.70116708 99.40140146 -22 94 C-22.66 94 -23.32 94 -24 94 C-24 94.66 -24 95.32 -24 96 C-28.62 96 -33.24 96 -38 96 C-38 95.01 -38 94.02 -38 93 C-38.8971875 92.62875 -38.8971875 92.62875 -39.8125 92.25 C-42.41320743 90.76388147 -43.54416577 89.62050161 -45 87 C-45.90685987 81.4292894 -43.63147532 76.80196227 -41 72 C-40.01 71.01 -40.01 71.01 -39 70 C-38.28591666 68.01643517 -37.61382258 66.01684563 -37 64 C-36.34 64 -35.68 64 -35 64 C-34.87496094 63.44570313 -34.74992188 62.89140625 -34.62109375 62.3203125 C-33.93391572 59.75311912 -33.03987573 57.34610091 -32.0625 54.875 C-31.72347656 54.00617187 -31.38445313 53.13734375 -31.03515625 52.2421875 C-30 50 -30 50 -28 48 C-27.30341637 46.34561387 -26.63903117 44.67745682 -26 43 C-25.67515625 42.38382813 -25.3503125 41.76765625 -25.015625 41.1328125 C-23.93164352 38.85645139 -23.35714521 36.69414867 -22.75 34.25 C-21.19826817 28.87435759 -18.50433266 25.27240557 -15 21 C-13.01160363 18.12025354 -12.06841583 16.4691371 -11.5625 13 C-10.71889421 8.50076911 -8.30200842 6.14418922 -4.9375 3.1875 C-3 2 -3 2 0 2 C0 1.34 0 0.68 0 0 Z M-1.53515625 5.203125 C-3.22555602 7.27668205 -4.2925843 9.33253865 -5.4375 11.75 C-6.88681867 14.76179735 -8.36138622 17.66200082 -10.125 20.5 C-12.77141505 25.43997475 -14.42093714 30.71482158 -15.39453125 36.23828125 C-15.59433594 36.81964844 -15.79414062 37.40101563 -16 38 C-17.485 38.495 -17.485 38.495 -19 39 C-20.22969878 42.51190809 -20.22969878 42.51190809 -21 46 C-21.66 46 -22.32 46 -23 46 C-23 46.66 -23 47.32 -23 48 C-23.66 48 -24.32 48 -25 48 C-25.4021875 49.3303125 -25.4021875 49.3303125 -25.8125 50.6875 C-27 54 -27 54 -28.4375 56.375 C-31.31106303 61.20258589 -33.13219295 66.44603487 -34 72 C-34.99 72 -35.98 72 -37 72 C-37.87279862 73.86639981 -38.72251027 75.74360611 -39.5625 77.625 C-40.27599609 79.19121094 -40.27599609 79.19121094 -41.00390625 80.7890625 C-42.14124843 84.45531847 -42.25397357 86.37515332 -41 90 C-37.13430387 93.47257449 -33.13866694 93.37228039 -28.1875 93.1875 C-27.49462891 93.17396484 -26.80175781 93.16042969 -26.08789062 93.14648438 C-24.39158735 93.11138845 -22.69568864 93.05758943 -21 93 C-20.87158237 105.51154595 -23.4195561 117.10233635 -26.56079102 129.13720703 C-28.53265172 136.92766474 -29.46054708 143.96415132 -29 152 C-28.34 152 -27.68 152 -27 152 C-26.67 152.99 -26.34 153.98 -26 155 C-25.01 155.33 -24.02 155.66 -23 156 C-21.99157547 154.56839732 -20.99352109 153.12948547 -20 151.6875 C-19.443125 150.88699219 -18.88625 150.08648438 -18.3125 149.26171875 C-16.74904036 147.00336982 -16.74904036 147.00336982 -17 144 C-16.34 144 -15.68 144 -15 144 C-12.16490428 138.17150371 -10.22416723 132.51801493 -8.80859375 126.1875 C-8.54175781 125.465625 -8.27492188 124.74375 -8 124 C-7.01 123.67 -6.02 123.34 -5 123 C-3.49045244 120.55864645 -3.49045244 120.55864645 -2.25 117.625 C-1.57710937 116.15933594 -1.57710937 116.15933594 -0.890625 114.6640625 C0.31515329 111.94428757 0.31515329 111.94428757 -1 109 C-0.01 109 0.98 109 2 109 C2 108.01 2 107.02 2 106 C2.66 106 3.32 106 4 106 C4.45375 105.05125 4.9075 104.1025 5.375 103.125 C7 100 7 100 9 98 C9.49057629 96.47439282 9.92043153 94.92884191 10.3125 93.375 C11.33968473 89.7057267 12.55792078 86.84577427 14.6875 83.6875 C16.26343886 81.32121114 16.98278752 80.09466864 17.5 77.25 C16.84717262 74.31227678 16.20569153 73.08822866 14 71 C11.12961948 70.70438924 8.66245255 70.62056984 5.8125 70.75 C5.06291016 70.76804687 4.31332031 70.78609375 3.54101562 70.8046875 C1.6934629 70.85175891 -0.15343159 70.92350234 -2 71 C1.7504071 48.82990819 1.7504071 48.82990819 3.625 40.4375 C6.16153575 28.89141106 7.32353077 17.82684692 7 6 C2.75402747 3.57046054 2.75402747 3.57046054 -1.53515625 5.203125 Z " fill="#142B45" transform="translate(643,552)"/>
<path d="M0 0 C1.98 0 3.96 0 6 0 C8.68703825 3.28752761 9.89306418 7.15448193 11.3125 11.125 C13.37548332 16.65983329 15.8682517 21.67305201 18.86328125 26.7578125 C20 29 20 29 20 32 C20.66 32 21.32 32 22 32 C22.33 30.35 22.66 28.7 23 27 C23.66 27 24.32 27 25 27 C25.12761719 26.27296875 25.25523437 25.5459375 25.38671875 24.796875 C27.22355024 16.41998745 31.24354227 7.13468659 36 0 C37.98 0 39.96 0 42 0 C42 13.53 42 27.06 42 41 C40.02 41 38.04 41 36 41 C35.67 32.09 35.34 23.18 35 14 C34.01 16.64 33.02 19.28 32 22 C31.34 22 30.68 22 30 22 C29.90203125 22.54527344 29.8040625 23.09054687 29.703125 23.65234375 C28.54000257 29.51809047 26.61460097 34.63118344 24 40 C22.35 40 20.7 40 19 40 C15.78302219 34.5416852 13.10997809 29.10334553 10.89453125 23.1640625 C9.98692795 20.7693788 9.98692795 20.7693788 8 18 C7.60612212 15.67612053 7.26513915 13.34206251 7 11 C6.34 11 5.68 11 5 11 C5 20.9 5 30.8 5 41 C3.35 41 1.7 41 0 41 C0 27.47 0 13.94 0 0 Z " fill="#C3CBD2" transform="translate(635,781)"/>
<path d="M0 0 C2.875 0.75 2.875 0.75 3.875 1.75 C5.76556785 19.84986266 0.37056104 39.05368744 -3.29296875 56.66796875 C-3.98806557 60.01664985 -4.5915055 63.37120147 -5.125 66.75 C-4.00480469 66.70359375 -2.88460937 66.6571875 -1.73046875 66.609375 C-0.25783915 66.57185577 1.21481927 66.53545577 2.6875 66.5 C3.42548828 66.46648437 4.16347656 66.43296875 4.92382812 66.3984375 C10.37633556 66.29974958 10.37633556 66.29974958 12.88671875 68.56640625 C14.44880218 72.01780797 13.83028348 74.10798172 12.875 77.75 C11.72166218 80.05667564 10.45567452 82.26226741 9.140625 84.48046875 C7.94403622 86.62620357 7.06848773 88.68820754 6.25 91 C5.05842207 94.249758 3.74420666 96.86122607 1.875 99.75 C1.38 100.74 1.38 100.74 0.875 101.75 C0.215 101.75 -0.445 101.75 -1.125 101.75 C-1.125 102.74 -1.125 103.73 -1.125 104.75 C-2.115 104.75 -3.105 104.75 -4.125 104.75 C-3.795 105.74 -3.465 106.73 -3.125 107.75 C-3.98046875 110.4140625 -3.98046875 110.4140625 -5.3125 113.375 C-5.95251953 114.84839844 -5.95251953 114.84839844 -6.60546875 116.3515625 C-8.125 118.75 -8.125 118.75 -10.30078125 119.5859375 C-10.90277344 119.64007812 -11.50476563 119.69421875 -12.125 119.75 C-10.38875242 113.3311453 -8.27319255 107.61215164 -5.125 101.75 C-4.465 101.75 -3.805 101.75 -3.125 101.75 C-2.97804688 100.70392578 -2.97804688 100.70392578 -2.828125 99.63671875 C-1.99676011 96.22350401 -0.59152493 93.62612384 1.125 90.5625 C4.21657582 85.01544693 7.02375185 79.45249629 9.875 73.75 C1.955 73.75 -5.965 73.75 -14.125 73.75 C-13.67125 71.77 -13.2175 69.79 -12.75 67.75 C-11.58920232 62.37995466 -10.73342738 57.08240925 -10.125 51.625 C-9.36424097 44.82756867 -7.99389965 38.32852676 -6.125 31.75 C-5.465 31.75 -4.805 31.75 -4.125 31.75 C-3.49391766 27.06195977 -3.01992539 22.40675331 -2.6875 17.6875 C-2.32724451 13.1029584 -1.60644584 9.09557446 -0.125 4.75 C-2.04809422 4.78955898 -2.04809422 4.78955898 -4.125 5.75 C-5.90879415 8.73352894 -5.90879415 8.73352894 -7.125 11.75 C-7.785 11.75 -8.445 11.75 -9.125 11.75 C-8.69905412 10.30903414 -8.25873367 8.87231288 -7.8125 7.4375 C-7.56886719 6.63699219 -7.32523438 5.83648438 -7.07421875 5.01171875 C-5.43239475 1.09971834 -4.34207042 -0.34736563 0 0 Z " fill="#334B65" transform="translate(646.125,556.25)"/>
<path d="M0 0 C3.625 -0.1875 3.625 -0.1875 7 0 C7.37753418 1.14045776 7.37753418 1.14045776 7.76269531 2.30395508 C8.923489 5.80734959 10.08673004 9.30992697 11.25 12.8125 C11.64574219 14.00810547 12.04148437 15.20371094 12.44921875 16.43554688 C14.62059038 22.9674599 16.86036602 29.45722552 19.29199219 35.8972168 C20 38 20 38 20 40 C18.35 40 16.7 40 15 40 C12 34.375 12 34.375 12 31 C5.73 31 -0.54 31 -7 31 C-7.66 34.3 -8.32 37.6 -9 41 C-10.98 41 -12.96 41 -15 41 C-14.09492496 35.98094751 -12.96426648 31.66190883 -10.75 27.0625 C-7.9608227 21.24412717 -5.99667892 15.24620732 -4.05566406 9.10571289 C-3.81686523 8.35926514 -3.57806641 7.61281738 -3.33203125 6.84375 C-3.12296143 6.17537109 -2.9138916 5.50699219 -2.69848633 4.81835938 C-2 3 -2 3 0 0 Z " fill="#E6EBEE" transform="translate(519,781)"/>
<path d="M0 0 C0.33 0 0.66 0 1 0 C-0.51612903 27.51612903 -0.51612903 27.51612903 -2 29 C-2.165 30.155 -2.33 31.31 -2.5 32.5 C-3 36 -3 36 -4 37 C-4.34965882 38.88933295 -4.6546483 40.78701712 -4.9375 42.6875 C-5.61952612 46.98833635 -6.53331435 50.89328019 -8 55 C-8.36920191 56.99369031 -8.71325582 58.99279077 -9 61 C-8.01 60.505 -8.01 60.505 -7 60 C-4.8576785 59.85166349 -2.70975871 59.77872587 -0.5625 59.75 C0.59121094 59.72421875 1.74492188 59.6984375 2.93359375 59.671875 C6 60 6 60 7.80859375 61.4375 C8.39833984 62.2109375 8.39833984 62.2109375 9 63 C9.53625 63.4125 10.0725 63.825 10.625 64.25 C12.89079217 67.13373549 12.94131458 69.36150401 13 73 C11.26947614 78.5901754 8.22399822 83.16400267 5 88 C4.690625 88.928125 4.38125 89.85625 4.0625 90.8125 C3.11825306 93.64524083 2.04263895 95.80678271 0.5625 98.375 C-1.11417093 101.28711266 -2.4714028 104.07262904 -3.5625 107.25 C-4.48589939 109.90542538 -5.16082051 111.196 -7 113.4375 C-9.36029983 116.46163416 -10.17220156 119.23726975 -11.29296875 122.86328125 C-12.6444595 126.94762068 -14.7408976 129.71622118 -17.625 132.875 C-20.27021179 135.80041841 -20.27021179 135.80041841 -20.375 139.375 C-21.27389593 144.58859639 -24.35234729 147.33329949 -28 151 C-29.06528748 148.26980214 -29.07998186 147.20701188 -28.00390625 144.421875 C-27.52824219 143.54015625 -27.05257812 142.6584375 -26.5625 141.75 C-26.08941406 140.85796875 -25.61632812 139.9659375 -25.12890625 139.046875 C-24.57009766 138.03367187 -24.57009766 138.03367187 -24 137 C-23.34 137 -22.68 137 -22 137 C-21.9175 136.34 -21.835 135.68 -21.75 135 C-20.46015189 129.84060757 -17.80351169 125.39674266 -15.1640625 120.80859375 C-12.73403322 116.5728354 -10.45659418 112.26109186 -8.1875 107.9375 C-7.53491211 106.69709961 -7.53491211 106.69709961 -6.86914062 105.43164062 C-3.61549708 99.22623798 -0.46082666 92.97783896 2.625 86.6875 C4 84 4 84 6 81 C6.66 81 7.32 81 8 81 C8.19441368 78.7089095 8.38033135 76.41709663 8.5625 74.125 C8.66691406 72.84882812 8.77132812 71.57265625 8.87890625 70.2578125 C9.25683367 67.11356058 9.25683367 67.11356058 8 65 C4.28720531 63.76240177 0.68693654 63.64391103 -3.1875 63.4375 C-4.31188477 63.37272461 -4.31188477 63.37272461 -5.45898438 63.30664062 C-7.30578375 63.20077315 -9.15286834 63.0999024 -11 63 C-11.42123778 55.13689476 -9.98829049 47.84165644 -8.43652344 40.18310547 C-7.69250663 36.46218921 -7.00563142 32.73066562 -6.3125 29 C-6.05884759 27.64578576 -5.80496541 26.29161453 -5.55078125 24.9375 C-5.36902344 23.968125 -5.18726563 22.99875 -5 22 C-4.34 22 -3.68 22 -3 22 C-2.95101562 21.16597656 -2.90203125 20.33195313 -2.8515625 19.47265625 C-2.40682732 12.77862499 -1.6531796 6.50250641 0 0 Z M-36 151 C-33.69 151 -31.38 151 -29 151 C-31 153 -31 153 -33.625 153.125 C-34.40875 153.08375 -35.1925 153.0425 -36 153 C-36 152.34 -36 151.68 -36 151 Z " fill="#132C46" transform="translate(653,559)"/>
<path d="M0 0 C8.25 0 16.5 0 25 0 C24.10310748 5.3813551 23.51789897 7.3006249 20.7265625 11.625 C20.0665625 12.66140625 19.4065625 13.6978125 18.7265625 14.765625 C17.68628906 16.36664062 17.68628906 16.36664062 16.625 18 C15.26064247 20.12347375 13.89858694 22.24842869 12.5390625 24.375 C11.93271973 25.31085937 11.32637695 26.24671875 10.70166016 27.2109375 C8.97117272 30.04724862 7.48588341 33.02823318 6 36 C12.27 36 18.54 36 25 36 C25 37.65 25 39.3 25 41 C16.42 41 7.84 41 -1 41 C-1 35.19443889 -0.91083384 34.10418842 1.921875 29.55859375 C2.53546875 28.56279297 3.1490625 27.56699219 3.78125 26.54101562 C4.4309375 25.51685547 5.080625 24.49269531 5.75 23.4375 C6.70132813 21.89545898 6.70132813 21.89545898 7.671875 20.32226562 C12.36305436 12.78217214 12.36305436 12.78217214 15.15332031 9.35571289 C17.16740032 7.05848768 17.16740032 7.05848768 18 4 C12.06 4 6.12 4 0 4 C0 2.68 0 1.36 0 0 Z " fill="#E2E7EA" transform="translate(574,781)"/>
<path d="M0 0 C0.33 0 0.66 0 1 0 C1 1.65 1 3.3 1 5 C2.10859375 4.97679687 3.2171875 4.95359375 4.359375 4.9296875 C5.82290992 4.91092423 7.28645214 4.89272463 8.75 4.875 C9.84441406 4.84986328 9.84441406 4.84986328 10.9609375 4.82421875 C17.90003453 4.76113605 17.90003453 4.76113605 21 7 C22.34152827 9.68305654 21.91701204 11.46608021 21.625 14.4375 C21.48964844 15.88962891 21.48964844 15.88962891 21.3515625 17.37109375 C21 20 21 20 20 23 C19.34 23 18.68 23 18 23 C17.74347656 23.51433594 17.48695313 24.02867187 17.22265625 24.55859375 C16.27613074 26.44862073 15.32463287 28.33615799 14.37109375 30.22265625 C13.7260967 31.5023695 13.08159625 32.78233313 12.4375 34.0625 C11.91675903 35.09685181 11.91675903 35.09685181 11.38549805 36.15209961 C9.4169366 40.08703082 7.50113733 44.0403473 5.6484375 48.03125 C5.25857666 48.86906006 4.86871582 49.70687012 4.46704102 50.57006836 C3.71647657 52.19039242 2.97183381 53.81347729 2.23413086 55.43969727 C0.21643708 59.79205125 -2.02051123 63.57293573 -4.89135742 67.41235352 C-6.43253779 69.61942155 -7.38154019 71.92046051 -8.3125 74.4375 C-8.63863281 75.30246094 -8.96476563 76.16742187 -9.30078125 77.05859375 C-9.53152344 77.69925781 -9.76226563 78.33992187 -10 79 C-10.66 79 -11.32 79 -12 79 C-12.18369141 79.82757812 -12.18369141 79.82757812 -12.37109375 80.671875 C-13.07993611 83.29591255 -14.03611256 85.7336953 -15.0625 88.25 C-15.42472656 89.14203125 -15.78695312 90.0340625 -16.16015625 90.953125 C-16.43730469 91.62859375 -16.71445312 92.3040625 -17 93 C-19.64 93 -22.28 93 -25 93 C-25 92.34 -25 91.68 -25 91 C-25.99 91 -26.98 91 -28 91 C-29.17353189 87.47940432 -29.20146402 84.693507 -29 81 C-28.01 80.01 -28.01 80.01 -27 79 C-27 81.64 -27 84.28 -27 87 C-26.34 87 -25.68 87 -25 87 C-23.375 88.5 -23.375 88.5 -22 90 C-19.59424393 87.81482901 -18.20464419 85.74080329 -16.8125 82.8125 C-16.46832031 82.09707031 -16.12414062 81.38164063 -15.76953125 80.64453125 C-15.51558594 80.10183594 -15.26164063 79.55914063 -15 79 C-14.34 79 -13.68 79 -13 79 C-10.70438191 72.40620337 -8.77910928 65.75052102 -7 59 C-5.02 58.505 -5.02 58.505 -3 58 C-2.86722656 57.42507813 -2.73445312 56.85015625 -2.59765625 56.2578125 C-1.82623468 53.34355324 -0.72576352 50.60600319 0.37890625 47.8046875 C1.10847432 46.00290613 1.10847432 46.00290613 1 44 C1.99 44 2.98 44 4 44 C4 43.01 4 42.02 4 41 C4.66 41 5.32 41 6 41 C6.28875 40.05125 6.5775 39.1025 6.875 38.125 C8 35 8 35 10 33 C10.49057629 31.47439282 10.92043153 29.92884191 11.3125 28.375 C12.33968473 24.7057267 13.55792078 21.84577427 15.6875 18.6875 C17.30769935 16.2669612 17.98081647 15.12332271 18.4375 12.1875 C18.08838835 9.72010357 18.08838835 9.72010357 16 7 C13.22737745 6.61605333 10.65676472 6.39657752 7.875 6.3125 C7.12089844 6.27833984 6.36679687 6.24417969 5.58984375 6.20898438 C3.72708799 6.12645722 1.86356674 6.06155289 0 6 C0 4.02 0 2.04 0 0 Z " fill="#314A64" transform="translate(641,617)"/>
<path d="M0 0 C1.65 0 3.3 0 5 0 C5 12.21 5 24.42 5 37 C9.95 37 14.9 37 20 37 C20 38.65 20 40.3 20 42 C13.4 42 6.8 42 0 42 C0 28.14 0 14.28 0 0 Z " fill="#E1E6EA" transform="translate(757,780)"/>
<path d="M0 0 C1.98 0 3.96 0 6 0 C8.96591096 3.54959138 10.18899896 7.97899698 11.6875 12.3125 C11.91244141 12.95767578 12.13738281 13.60285156 12.36914062 14.26757812 C12.91773533 15.84332887 13.45956959 17.42143054 14 19 C12.02 19.99 12.02 19.99 10 21 C7.70366176 17.55549263 7.45983515 15.06187717 7 11 C6.34 11 5.68 11 5 11 C5 20.9 5 30.8 5 41 C3.35 41 1.7 41 0 41 C0 27.47 0 13.94 0 0 Z " fill="#E9EEF1" transform="translate(635,781)"/>
<path d="M0 0 C1.98 0 3.96 0 6 0 C6 13.86 6 27.72 6 42 C4.02 42 2.04 42 0 42 C0 28.14 0 14.28 0 0 Z " fill="#D2D8DD" transform="translate(713,780)"/>
<path d="M0 0 C0.33 0 0.66 0 1 0 C1.0269501 2.93756119 1.04681474 5.87487555 1.0625 8.8125 C1.07087891 9.64587891 1.07925781 10.47925781 1.08789062 11.33789062 C1.09111328 12.14033203 1.09433594 12.94277344 1.09765625 13.76953125 C1.10289307 14.50792236 1.10812988 15.24631348 1.11352539 16.00708008 C1 18 1 18 0 21 C-0.35543427 23.33006911 -0.6913753 25.66327016 -1 28 C-2.32 28.33 -3.64 28.66 -5 29 C-4.34 29.66 -3.68 30.32 -3 31 C-2.8046875 33.6015625 -2.8046875 33.6015625 -2.875 36.625 C-2.89304687 37.62789062 -2.91109375 38.63078125 -2.9296875 39.6640625 C-2.96449219 40.82035156 -2.96449219 40.82035156 -3 42 C-2.01 41.505 -2.01 41.505 -1 41 C-0.26924352 38.6859378 0.40138258 36.35171131 1 34 C1.66 34 2.32 34 3 34 C3.0825 33.175 3.165 32.35 3.25 31.5 C4.16447269 27.23246079 5.92223178 23.80763106 8 20 C8.66 20 9.32 20 10 20 C10.33 18.02 10.66 16.04 11 14 C11.66 14 12.32 14 13 14 C12.57305989 16.21039917 12.13296022 18.41825861 11.6875 20.625 C11.44386719 21.85476563 11.20023438 23.08453125 10.94921875 24.3515625 C10.02532386 27.90266468 8.7610503 30.79360589 7 34 C6.34 34 5.68 34 5 34 C4.88785156 34.57234375 4.77570312 35.1446875 4.66015625 35.734375 C3.92776966 38.24789112 2.86145147 40.05930543 1.4375 42.25 C0.98246094 42.95640625 0.52742187 43.6628125 0.05859375 44.390625 C-0.29074219 44.92171875 -0.64007812 45.4528125 -1 46 C-2.32 45.34 -3.64 44.68 -5 44 C-5 43.34 -5 42.68 -5 42 C-5.66 42 -6.32 42 -7 42 C-7.74084226 31.50473463 -5.51882357 22.08909604 -3 12 C-2.69191406 10.73929688 -2.38382813 9.47859375 -2.06640625 8.1796875 C-1.39184686 5.44917439 -0.70473773 2.72285034 0 0 Z " fill="#38516C" transform="translate(621,662)"/>
<path d="M0 0 C1.81669777 3.08499996 2.20147442 5.04862156 1.86328125 8.59765625 C1.78190918 9.47719971 1.70053711 10.35674316 1.61669922 11.26293945 C1.51631348 12.18679443 1.41592773 13.11064941 1.3125 14.0625 C1.21727051 15.00246826 1.12204102 15.94243652 1.02392578 16.91088867 C0.30303842 23.49624597 -0.89997537 29.70717591 -3 36 C-2.43490723 36.01458252 -1.86981445 36.02916504 -1.28759766 36.04418945 C1.26730019 36.11856058 3.82087498 36.21525242 6.375 36.3125 C7.26445313 36.33505859 8.15390625 36.35761719 9.0703125 36.38085938 C9.92109375 36.41630859 10.771875 36.45175781 11.6484375 36.48828125 C12.43395996 36.51446533 13.21948242 36.54064941 14.02880859 36.56762695 C16 37 16 37 18 40 C17.625 43.1875 17.625 43.1875 17 46 C16.34 46 15.68 46 15 46 C15.33 44.68 15.66 43.36 16 42 C8.08 42 0.16 42 -8 42 C-7.319375 39.03 -7.319375 39.03 -6.625 36 C-5.46420232 30.62995466 -4.60842738 25.33240925 -4 19.875 C-3.23924097 13.07756867 -1.86889965 6.57852676 0 0 Z " fill="#485F79" transform="translate(640,588)"/>
<path d="M0 0 C1 3 1 3 1.3125 6.0625 C1.66816579 9.0161926 1.66816579 9.0161926 3.55859375 10.14453125 C6.91345708 11.32007536 10.23118613 11.46535627 13.75 11.625 C14.44738281 11.66367187 15.14476562 11.70234375 15.86328125 11.7421875 C17.57510818 11.83598624 19.28751682 11.91906174 21 12 C22.05040492 23.37105009 20.27239274 33.68691223 17.625 44.6875 C17.46611298 45.3492926 17.30722595 46.01108521 17.14352417 46.69293213 C14.56741192 57.32418784 14.56741192 57.32418784 12.90429688 62.23608398 C11.95817068 65.12784819 11.79319381 67.34817101 11.875 70.375 C11.89304687 71.24898437 11.91109375 72.12296875 11.9296875 73.0234375 C11.95289063 73.67570313 11.97609375 74.32796875 12 75 C12.99 75.33 13.98 75.66 15 76 C13.35 75.67 11.7 75.34 10 75 C9.55182956 66.23577815 10.7178519 58.17100667 12.47753906 49.625 C13.10041637 46.49547814 13.67298227 43.35847563 14.2421875 40.21875 C14.45979736 39.02000244 14.67740723 37.82125488 14.90161133 36.58618164 C15.33519852 34.19240235 15.76737549 31.79836711 16.19799805 29.40405273 C17.21769469 23.83617897 18.29883292 18.40140146 20 13 C19.34 13 18.68 13 18 13 C18 13.66 18 14.32 18 15 C13.38 15 8.76 15 4 15 C4 14.01 4 13.02 4 12 C3.360625 11.690625 2.72125 11.38125 2.0625 11.0625 C0 10 0 10 -1 9 C-1.1328125 7.1875 -1.1328125 7.1875 -1.125 5 C-1.12757813 4.278125 -1.13015625 3.55625 -1.1328125 2.8125 C-1 1 -1 1 0 0 Z " fill="#223A53" transform="translate(601,633)"/>
<path d="M0 0 C0.33 0.99 0.66 1.98 1 3 C8.59 3 16.18 3 24 3 C23.06758449 10.45932407 21.92324358 17.83786312 20.6875 25.25 C20.57839294 25.90974823 20.46928589 26.56949646 20.35687256 27.24923706 C18.81866258 36.53655585 17.15556575 45.78653644 15.08081055 54.97167969 C14.22015158 58.95798193 13.79826811 62.0592558 15 66 C13.515 66.495 13.515 66.495 12 67 C11.93941406 66.31292969 11.87882813 65.62585938 11.81640625 64.91796875 C11.73261719 64.01691406 11.64882813 63.11585938 11.5625 62.1875 C11.48128906 61.29417969 11.40007813 60.40085937 11.31640625 59.48046875 C11.06510233 56.87256441 11.06510233 56.87256441 10 54 C11.98 53.505 11.98 53.505 14 53 C13.98839844 52.36191406 13.97679687 51.72382812 13.96484375 51.06640625 C13.95582031 50.24011719 13.94679688 49.41382813 13.9375 48.5625 C13.92589844 47.73878906 13.91429687 46.91507813 13.90234375 46.06640625 C14 44 14 44 15 43 C15.16148105 40.03951408 15.27889872 37.08765716 15.375 34.125 C15.64099303 27.63174737 16.16942372 21.71774139 18.28125 15.51953125 C19.25593636 12.10283177 19.55930389 8.52556885 20 5 C13.4 5 6.8 5 0 5 C0 3.35 0 1.7 0 0 Z " fill="#576B82" transform="translate(606,637)"/>
<path d="M0 0 C1.65 0 3.3 0 5 0 C5 13.2 5 26.4 5 40 C3.68 40 2.36 40 1 40 C1 30.43 1 20.86 1 11 C0.01 11.33 -0.98 11.66 -2 12 C-2.66 11.67 -3.32 11.34 -4 11 C-2.25 3.375 -2.25 3.375 0 0 Z " fill="#FAFDFD" transform="translate(671,781)"/>
<path d="M0 0 C0.33 0 0.66 0 1 0 C1 8.91 1 17.82 1 27 C0.67 25.68 0.34 24.36 0 23 C-0.86625 23.6496875 -0.86625 23.6496875 -1.75 24.3125 C-2.4925 24.869375 -3.235 25.42625 -4 26 C-4.70125 26.556875 -5.4025 27.11375 -6.125 27.6875 C-8 29 -8 29 -10 29 C-10.95538634 26.4523031 -11.27987043 24.69315059 -10.24609375 22.1328125 C-9.52879299 20.77232324 -8.79919563 19.41825918 -8.05859375 18.0703125 C-6.55468328 15.12908538 -5.79942781 12.19771124 -5 9 C-4.34 9 -3.68 9 -3 9 C-2.87625 8.071875 -2.7525 7.14375 -2.625 6.1875 C-2 3 -2 3 0 0 Z " fill="#051A32" transform="translate(670,794)"/>
<path d="M0 0 C0.99 0.33 1.98 0.66 3 1 C2.76410156 2.46179688 2.76410156 2.46179688 2.5234375 3.953125 C2.12347661 6.74022087 1.89648985 9.4835422 1.7890625 12.296875 C1.74652344 13.39322266 1.74652344 13.39322266 1.703125 14.51171875 C1.65050565 16.01926299 1.60640212 17.52712575 1.5703125 19.03515625 C1.37871368 23.52974531 1.31507014 24.68492986 -2 28 C-1.67 22.06 -1.34 16.12 -1 10 C-3.42146049 13.22861398 -4.55959235 15.07303915 -5.875 18.6875 C-8.6163463 25.7815183 -11.98068754 32.23708569 -17 38 C-17.33 36.35 -17.66 34.7 -18 33 C-17.20722656 32.46890625 -16.41445313 31.9378125 -15.59765625 31.390625 C-12.46443822 28.50712209 -12.13917652 26.89136352 -11.4375 22.75 C-10.33143366 17.16939256 -8.91155576 12.88389998 -6 8 C-5.34 7.67 -4.68 7.34 -4 7 C-2.96708324 5.01679982 -1.9662501 3.01652194 -1 1 C-0.67 0.67 -0.34 0.34 0 0 Z " fill="#556A82" transform="translate(643,560)"/>
<path d="M0 0 C0.66 0 1.32 0 2 0 C2.82065069 1.87144695 3.6311584 3.74734336 4.4375 5.625 C4.88996094 6.66914062 5.34242188 7.71328125 5.80859375 8.7890625 C7 12 7 12 8 18 C3.38 18 -1.24 18 -6 18 C-4.8681574 11.20894441 -3.34143501 6.01458303 0 0 Z " fill="#0F2137" transform="translate(521,790)"/>
<path d="M0 0 C1.78376279 3.56752558 0.50093953 7.36730818 -0.6328125 11.0625 C-2.04660901 14.9913661 -3.7232529 18.48139084 -6 22 C-6.33 22.66 -6.66 23.32 -7 24 C-7.66 24 -8.32 24 -9 24 C-9 24.99 -9 25.98 -9 27 C-9.99 27 -10.98 27 -12 27 C-11.67 27.99 -11.34 28.98 -11 30 C-11.85546875 32.6640625 -11.85546875 32.6640625 -13.1875 35.625 C-13.61417969 36.60726562 -14.04085937 37.58953125 -14.48046875 38.6015625 C-16 41 -16 41 -18.17578125 41.8359375 C-18.77777344 41.89007812 -19.37976563 41.94421875 -20 42 C-18.26375242 35.5811453 -16.14819255 29.86215164 -13 24 C-12.34 24 -11.68 24 -11 24 C-10.90460937 23.30777344 -10.80921875 22.61554687 -10.7109375 21.90234375 C-9.85412246 18.40446697 -8.37949458 15.70504409 -6.625 12.5625 C-4.32323276 8.4144216 -2.09346272 4.25756375 0 0 Z " fill="#6F7E8F" transform="translate(654,634)"/>
<path d="M0 0 C0.33 0 0.66 0 1 0 C1 1.65 1 3.3 1 5 C2.10859375 4.97679687 3.2171875 4.95359375 4.359375 4.9296875 C5.82290992 4.91092423 7.28645214 4.89272463 8.75 4.875 C9.84441406 4.84986328 9.84441406 4.84986328 10.9609375 4.82421875 C17.90003453 4.76113605 17.90003453 4.76113605 21 7 C22.34152827 9.68305654 21.91701204 11.46608021 21.625 14.4375 C21.53476562 15.40558594 21.44453125 16.37367188 21.3515625 17.37109375 C21 20 21 20 20 23 C19.34 23 18.68 23 18 23 C17.56518311 23.86963379 17.56518311 23.86963379 17.12158203 24.75683594 C14.08105469 30.83789062 11.04052734 36.91894531 8 43 C7.505 41.515 7.505 41.515 7 40 C7.97706581 38.31978567 8.9805291 36.65482835 10 35 C10.52453224 33.07936427 10.98109535 31.13911851 11.375 29.1875 C12.50745701 24.25798127 14.13909297 20.81048852 16.984375 16.6796875 C18.40247936 14.33436105 18.53323613 12.66618064 18 10 C17.34 9.01 16.68 8.02 16 7 C13.22737745 6.61605333 10.65676472 6.39657752 7.875 6.3125 C7.12089844 6.27833984 6.36679687 6.24417969 5.58984375 6.20898438 C3.72708799 6.12645722 1.86356674 6.06155289 0 6 C0 4.02 0 2.04 0 0 Z " fill="#2B435D" transform="translate(641,617)"/>
<path d="M0 0 C1.16110175 3.48330526 0.77231701 4.51852696 -0.3125 7.9375 C-0.57675781 8.79214844 -0.84101562 9.64679687 -1.11328125 10.52734375 C-3.31087584 16.65543792 -3.31087584 16.65543792 -6 18 C-7.05352843 20.30965848 -8.05719096 22.6429774 -9 25 C-9.66 25 -10.32 25 -11 25 C-11 25.66 -11 26.32 -11 27 C-11.66 27 -12.32 27 -13 27 C-12.9175 27.70125 -12.835 28.4025 -12.75 29.125 C-13.08335155 32.95854284 -14.83298684 34.84235225 -17 38 C-18.13982013 40.62003903 -19.06367966 43.30184611 -20 46 C-20.66066719 47.66905395 -21.32438252 49.3369416 -22 51 C-22.66 51 -23.32 51 -24 51 C-22.8456795 45.8499547 -21.41151716 41.71818575 -19 37 C-18.835 36.113125 -18.67 35.22625 -18.5 34.3125 C-17.89960036 31.53565166 -16.97491924 30.97491924 -15 29 C-14.505 27.80375 -14.01 26.6075 -13.5 25.375 C-13.005 24.26125 -12.51 23.1475 -12 22 C-11.01 21.67 -10.02 21.34 -9 21 C-8.67 18.36 -8.34 15.72 -8 13 C-7.34 13 -6.68 13 -6 13 C-5.938125 12.154375 -5.87625 11.30875 -5.8125 10.4375 C-4.7594782 5.98240777 -2.80339085 3.59409083 0 0 Z " fill="#283E58" transform="translate(631,573)"/>
<path d="M0 0 C1.32 0 2.64 0 4 0 C4 0.66 4 1.32 4 2 C4.9590625 2.2165625 4.9590625 2.2165625 5.9375 2.4375 C8 3 8 3 9 4 C9.62871361 12.48032311 8.50453454 20.67132666 7 29 C6.34 29 5.68 29 5 29 C5.165 27.80375 5.33 26.6075 5.5 25.375 C6.23219971 18.92958003 6.08292095 12.47704735 6 6 C3.03 5.505 3.03 5.505 0 5 C-1.52883128 7.53740355 -3.04624384 10.07954411 -4.53515625 12.640625 C-5.03917969 13.50171875 -5.54320312 14.3628125 -6.0625 15.25 C-6.82240234 16.55710937 -6.82240234 16.55710937 -7.59765625 17.890625 C-9 20 -9 20 -11 21 C-10.71788123 19.3733152 -10.42397625 17.74867104 -10.125 16.125 C-9.96257813 15.22007812 -9.80015625 14.31515625 -9.6328125 13.3828125 C-9 11 -9 11 -7 9 C-6.67 8.175 -6.34 7.35 -6 6.5 C-5 4 -5 4 -3 2 C-2.01 2 -1.02 2 0 2 C0 1.34 0 0.68 0 0 Z " fill="#1D364F" transform="translate(643,552)"/>
<path d="M0 0 C0.93423645 3.01031744 1.04449911 3.86650268 0 7 C-0.30486441 10.12486016 -0.50841216 13.25028111 -0.71875 16.3828125 C-1 19 -1 19 -2 20 C0.97 20.33 3.94 20.66 7 21 C7 21.33 7 21.66 7 22 C0.73 22 -5.54 22 -12 22 C-11.05764601 17.28823003 -10.41523211 15.78144604 -7.6875 12.125 C-4.82704035 8.19333942 -2.3202363 4.26923479 0 0 Z " fill="#15293F" transform="translate(592,795)"/>
<path d="M0 0 C1.40377041 2.80754081 0.69867118 4.46977111 0.109375 7.5390625 C-0.10428711 8.66948975 -0.31794922 9.79991699 -0.53808594 10.96459961 C-0.77301758 12.17253174 -1.00794922 13.38046387 -1.25 14.625 C-1.59853027 16.4649353 -1.59853027 16.4649353 -1.95410156 18.34204102 C-2.94033002 23.54031542 -3.94543623 28.73468844 -4.96875 33.92578125 C-6.47147434 41.60757136 -7.57032531 49.17695728 -8 57 C-8.66 56.67 -9.32 56.34 -10 56 C-10.28994872 46.86661545 -9.1741788 38.03698325 -8 29 C-7.34 29 -6.68 29 -6 29 C-5.90912109 27.39318359 -5.90912109 27.39318359 -5.81640625 25.75390625 C-5.73201463 24.35675609 -5.64736594 22.95962143 -5.5625 21.5625 C-5.50352539 20.50192383 -5.50352539 20.50192383 -5.44335938 19.41992188 C-5.11328125 14.11328125 -5.11328125 14.11328125 -4 13 C-3.84289112 11.56565414 -3.72395279 10.12702756 -3.625 8.6875 C-3.26369059 4.96778998 -2.72836252 2.72836252 0 0 Z " fill="#102841" transform="translate(619,651)"/>
<path d="M0 0 C8.25 0 16.5 0 25 0 C24.04991005 5.70053971 23.628301 7.0205731 20 11 C20 9.68 20 8.36 20 7 C19.34 7 18.68 7 18 7 C18 6.01 18 5.02 18 4 C12.06 4 6.12 4 0 4 C0 2.68 0 1.36 0 0 Z " fill="#F3F8FA" transform="translate(574,781)"/>
<path d="M0 0 C-1.98 4.95 -3.96 9.9 -6 15 C-6.66 15 -7.32 15 -8 15 C-8.33 16.65 -8.66 18.3 -9 20 C-9.66 20 -10.32 20 -11 20 C-11.86627399 18.40233897 -12.71766465 16.79660056 -13.5625 15.1875 C-14.03816406 14.29417969 -14.51382813 13.40085937 -15.00390625 12.48046875 C-16 10 -16 10 -15 7 C-14.34 7 -13.68 7 -13 7 C-12.67 6.01 -12.34 5.02 -12 4 C-11.67 4.99 -11.34 5.98 -11 7 C-9.35 7 -7.7 7 -6 7 C-6 4.69 -6 2.38 -6 0 C-2.25 -1.125 -2.25 -1.125 0 0 Z " fill="#091D35" transform="translate(666,793)"/>
<path d="M0 0 C0 3.86695678 -1.41909971 6.5088452 -3 10 C-3.66 10 -4.32 10 -5 10 C-5.226875 11.11375 -5.45375 12.2275 -5.6875 13.375 C-6.77422685 17.74502926 -8.61325487 21.4795605 -10.69140625 25.45703125 C-12.6325769 29.2292763 -14.31693098 33.10731523 -16 37 C-16.66 37 -17.32 37 -18 37 C-17.88490339 35.58249437 -17.75746342 34.16598831 -17.625 32.75 C-17.55539062 31.96109375 -17.48578125 31.1721875 -17.4140625 30.359375 C-16.98492887 27.914123 -16.21399362 26.15163097 -15 24 C-14.34 24 -13.68 24 -13 24 C-13 23.34 -13 22.68 -13 22 C-12.34 22 -11.68 22 -11 22 C-11.12375 20.845 -11.2475 19.69 -11.375 18.5 C-11.40915219 13.71869307 -9.40862409 11.11228146 -6.5078125 7.46875 C-5 6 -5 6 -3 6 C-2.87625 5.195625 -2.7525 4.39125 -2.625 3.5625 C-2.41875 2.716875 -2.2125 1.87125 -2 1 C-1.34 0.67 -0.68 0.34 0 0 Z " fill="#718394" transform="translate(625,600)"/>
<path d="M0 0 C0.33 0.66 0.66 1.32 1 2 C0.01870318 3.86108017 -0.96487453 5.72099955 -1.9609375 7.57421875 C-3.13670772 10.319156 -3.53420173 12.79643326 -3.9375 15.75 C-4.68285682 20.72816299 -4.68285682 20.72816299 -7.625 23.25 C-8.40875 23.8275 -9.1925 24.405 -10 25 C-10.16677282 28.58343976 -10.16677282 28.58343976 -10 32 C-10.99 32.66 -11.98 33.32 -13 34 C-13.185625 34.9590625 -13.185625 34.9590625 -13.375 35.9375 C-14 38 -14 38 -16.5625 39.75 C-17.366875 40.1625 -18.17125 40.575 -19 41 C-17.60121198 36.53202662 -15.86369228 32.36177921 -13.875 28.125 C-13.33617187 26.97257813 -12.79734375 25.82015625 -12.2421875 24.6328125 C-11.83226562 23.76398437 -11.42234375 22.89515625 -11 22 C-10.34 22 -9.68 22 -9 22 C-8.87238281 21.47277344 -8.74476563 20.94554687 -8.61328125 20.40234375 C-7.8567398 17.4388215 -7.03989185 14.50002569 -6.1875 11.5625 C-5.87167969 10.45003906 -5.55585937 9.33757813 -5.23046875 8.19140625 C-3.94353741 4.85355576 -2.36807746 2.65601979 0 0 Z " fill="#495E77" transform="translate(636,568)"/>
<path d="M0 0 C2 4 2 4 2 7 C8.93 7 15.86 7 23 7 C24 12 24 12 23 14 C22.34 14 21.68 14 21 14 C21.33 12.68 21.66 11.36 22 10 C14.08 10 6.16 10 -2 10 C-1.34 6.7 -0.68 3.4 0 0 Z " fill="#667A8D" transform="translate(634,620)"/>
<path d="M0 0 C0.66 0 1.32 0 2 0 C1.57305989 2.21039917 1.13296022 4.41825861 0.6875 6.625 C0.44386719 7.85476563 0.20023438 9.08453125 -0.05078125 10.3515625 C-0.97467614 13.90266468 -2.2389497 16.79360589 -4 20 C-4.66 20 -5.32 20 -6 20 C-6.103125 20.598125 -6.20625 21.19625 -6.3125 21.8125 C-7.08876455 24.28243264 -8.07088921 25.32251235 -10 27 C-10 24.69 -10 22.38 -10 20 C-9.34 20 -8.68 20 -8 20 C-7.9175 19.175 -7.835 18.35 -7.75 17.5 C-6.83552731 13.23246079 -5.07776822 9.80763106 -3 6 C-2.34 6 -1.68 6 -1 6 C-0.67 4.02 -0.34 2.04 0 0 Z " fill="#54667C" transform="translate(632,676)"/>
<path d="M0 0 C0.66 0 1.32 0 2 0 C1.37215868 8.71099529 -0.41215612 17.01921064 -2.359375 25.51757812 C-2.58367188 26.53916016 -2.80796875 27.56074219 -3.0390625 28.61328125 C-3.24740723 29.52891846 -3.45575195 30.44455566 -3.67041016 31.38793945 C-4.02408301 34.1908623 -3.704225 36.27980046 -3 39 C-4.485 39.495 -4.485 39.495 -6 40 C-6.06058594 39.31292969 -6.12117187 38.62585938 -6.18359375 37.91796875 C-6.26738281 37.01691406 -6.35117187 36.11585938 -6.4375 35.1875 C-6.51871094 34.29417969 -6.59992187 33.40085937 -6.68359375 32.48046875 C-6.93489767 29.87256441 -6.93489767 29.87256441 -8 27 C-6.68 26.67 -5.36 26.34 -4 26 C-4.01160156 25.36191406 -4.02320313 24.72382812 -4.03515625 24.06640625 C-4.04869141 22.82697266 -4.04869141 22.82697266 -4.0625 21.5625 C-4.07410156 20.73878906 -4.08570313 19.91507813 -4.09765625 19.06640625 C-4 17 -4 17 -3 16 C-2.76924918 14.65252916 -2.58846937 13.29622435 -2.4375 11.9375 C-2.293125 10.638125 -2.14875 9.33875 -2 8 C-1.34 8 -0.68 8 0 8 C0 5.36 0 2.72 0 0 Z " fill="#64778C" transform="translate(624,664)"/>
<path d="M0 0 C1.39622936 4.30889327 -0.00318019 6.00636039 -2 10 C-2.32894665 14.15894384 -2.32894665 14.15894384 -1 18 C5.27 18.33 11.54 18.66 18 19 C18 21.31 18 23.62 18 26 C17.34 26.66 16.68 27.32 16 28 C16 25.69 16 23.38 16 21 C14.46279297 21.05220703 14.46279297 21.05220703 12.89453125 21.10546875 C11.53387064 21.13362035 10.1731922 21.16091904 8.8125 21.1875 C8.13896484 21.21263672 7.46542969 21.23777344 6.77148438 21.26367188 C2.33894772 21.32853827 -0.65098307 21.00843894 -4 18 C-5.67288223 13.16421897 -4.63279667 10.16955366 -2.5625 5.625 C-2.08941406 4.56539062 -1.61632812 3.50578125 -1.12890625 2.4140625 C-0.75636719 1.61742187 -0.38382813 0.82078125 0 0 Z " fill="#324963" transform="translate(606,624)"/>
<path d="M0 0 C0.66 0 1.32 0 2 0 C2.45375 1.216875 2.9075 2.43375 3.375 3.6875 C4.54452941 6.8080927 5.74562438 9.91230616 7 13 C6.34 12.67 5.68 12.34 5 12 C4.67 13.32 4.34 14.64 4 16 C3.67 15.67 3.34 15.34 3 15 C1.99740493 18.00778521 1.69685358 20.53820647 1.4375 23.6875 C1.35371094 24.68136719 1.26992188 25.67523437 1.18359375 26.69921875 C1.12300781 27.45847656 1.06242188 28.21773437 1 29 C0.67 29 0.34 29 0 29 C0 19.43 0 9.86 0 0 Z " fill="#3C4A5B" transform="translate(640,792)"/>
<path d="M0 0 C0.99 0 1.98 0 3 0 C5.82093949 6.13247716 7.79673673 11.2123279 6 18 C6.66 18.33 7.32 18.66 8 19 C7.01 19 6.02 19 5 19 C3.96772138 16.39985473 2.94894848 13.79573631 1.9375 11.1875 C1.64294922 10.44951172 1.34839844 9.71152344 1.04492188 8.95117188 C-1.11328125 3.33984375 -1.11328125 3.33984375 0 0 Z " fill="#19293D" transform="translate(696,553)"/>
<path d="M0 0 C1.78376279 3.56752558 0.50093953 7.36730818 -0.6328125 11.0625 C-2.37755908 15.91105892 -4.30847068 20.30847068 -8 24 C-8.33 23.01 -8.66 22.02 -9 21 C-8.34 21 -7.68 21 -7 21 C-7.33 20.01 -7.66 19.02 -8 18 C-7.29296875 15.37109375 -7.29296875 15.37109375 -6.1875 12.4375 C-5.83042969 11.46683594 -5.47335937 10.49617187 -5.10546875 9.49609375 C-4 7 -4 7 -2 5 C-1.29289322 3.35008418 -0.62056011 1.68437744 0 0 Z " fill="#425870" transform="translate(654,634)"/>
<path d="M0 0 C1.65 0 3.3 0 5 0 C5.20168318 5.44544579 4.6725094 10.20520514 3.51171875 15.5234375 C2.79341892 18.99978933 2.39186101 22.47325095 2 26 C1.34 25.67 0.68 25.34 0 25 C0.11517421 22.64499052 0.24187978 20.29150927 0.375 17.9375 C0.44460938 16.62652344 0.51421875 15.31554687 0.5859375 13.96484375 C0.99805436 10.01863043 1.79756567 6.75882927 3 3 C1.68 3 0.36 3 -1 3 C-0.67 2.01 -0.34 1.02 0 0 Z " fill="#485C77" transform="translate(643,558)"/>
<path d="M0 0 C1.32 0.33 2.64 0.66 4 1 C3.01 4.3 2.02 7.6 1 11 C0.34 11 -0.32 11 -1 11 C-1 11.66 -1 12.32 -1 13 C-2.32 13.33 -3.64 13.66 -5 14 C-4.46515599 8.65155992 -2.53309233 4.64203897 0 0 Z " fill="#E8EDF1" transform="translate(666,792)"/>
<path d="M0 0 C0.33 0 0.66 0 1 0 C0.67 2.64 0.34 5.28 0 8 C-0.66 8 -1.32 8 -2 8 C-2.28987793 8.57975586 -2.57975586 9.15951172 -2.87841797 9.75683594 C-5.91894531 15.83789062 -8.95947266 21.91894531 -12 28 C-12.33 27.01 -12.66 26.02 -13 25 C-12.02065076 23.32111559 -11.01656081 21.65661761 -10 20 C-9.67 18.845 -9.34 17.69 -9 16.5 C-8.05323667 13.18632835 -6.87809644 10.85797285 -5 8 C-4.67 7.34 -4.34 6.68 -4 6 C-3.34 6 -2.68 6 -2 6 C-1.34 4.02 -0.68 2.04 0 0 Z " fill="#233B55" transform="translate(661,632)"/>
<path d="M0 0 C0.99 0 1.98 0 3 0 C3.84069415 1.60032137 4.67231505 3.20541171 5.5 4.8125 C5.9640625 5.70582031 6.428125 6.59914063 6.90625 7.51953125 C8 10 8 10 8 13 C8.66 13.33 9.32 13.66 10 14 C9.01 14 8.02 14 7 14 C6.67 12.35 6.34 10.7 6 9 C5.01 9 4.02 9 3 9 C2.67 9.99 2.34 10.98 2 12 C1.01 8.37 0.02 4.74 -1 1 C-0.67 0.67 -0.34 0.34 0 0 Z " fill="#D4DADF" transform="translate(647,800)"/>
<path d="M0 0 C1 3 1 3 1.1875 6 C1.71665662 9.17955008 1.71665662 9.17955008 4.4375 10.8125 C8.94725237 12.31575079 13.27326211 12.7291 18 13 C18 13.66 18 14.32 18 15 C13.38 15 8.76 15 4 15 C4 14.01 4 13.02 4 12 C3.360625 11.690625 2.72125 11.38125 2.0625 11.0625 C0 10 0 10 -1 9 C-1.1328125 7.1875 -1.1328125 7.1875 -1.125 5 C-1.12757813 4.278125 -1.13015625 3.55625 -1.1328125 2.8125 C-1 1 -1 1 0 0 Z " fill="#1E344F" transform="translate(601,633)"/>
<path d="M0 0 C-0.33 0.66 -0.66 1.32 -1 2 C0.32 2.66 1.64 3.32 3 4 C2.071875 4 1.14375 4 0.1875 4 C-3.06092614 4.62420721 -3.06092614 4.62420721 -4.06640625 6.84765625 C-4.80956611 8.88326804 -5.45544926 10.90300196 -6 13 C-8.12046792 9.46588679 -8.53199289 6.05606165 -9 2 C-5.86501708 0.14223235 -3.62528568 -0.20140476 0 0 Z " fill="#15283C" transform="translate(674,777)"/>
<path d="M0 0 C1.28317892 3.84953676 1.06643637 6.94738135 1 11 C3.33075929 10.04134491 3.33075929 10.04134491 5 7 C5.75 8.75 5.75 8.75 6 11 C4.0625 13.25 4.0625 13.25 2 15 C1.01 14.34 0.02 13.68 -1 13 C-1 12.34 -1 11.68 -1 11 C-1.66 11 -2.32 11 -3 11 C-2.44894091 7.0507432 -1.61064629 3.65079826 0 0 Z " fill="#496078" transform="translate(617,693)"/>
<path d="M0 0 C3.12482562 -0.08687496 6.24934246 -0.14034568 9.375 -0.1875 C10.70917969 -0.22520508 10.70917969 -0.22520508 12.0703125 -0.26367188 C13.34648438 -0.27817383 13.34648438 -0.27817383 14.6484375 -0.29296875 C15.82672119 -0.31653442 15.82672119 -0.31653442 17.02880859 -0.34057617 C17.67930176 -0.22818604 18.32979492 -0.1157959 19 0 C21 3 21 3 20.8125 6.375 C20.02557025 9.88591736 19.16194882 12.14622755 17 15 C16.34 15 15.68 15 15 15 C15.33 13.35 15.66 11.7 16 10 C16.66 10 17.32 10 18 10 C18.20970559 5.85906302 18.20970559 5.85906302 17 2 C11.39 1.67 5.78 1.34 0 1 C0 0.67 0 0.34 0 0 Z " fill="#3F5670" transform="translate(639,624)"/>
<path d="M0 0 C1.92142733 3.17359345 2.16635107 4.84648095 1.3125 8.4375 C1.11527344 9.29988281 0.91804687 10.16226563 0.71484375 11.05078125 C0.47894531 12.02402344 0.24304688 12.99726562 0 14 C-0.54201599 16.3749203 -1.08367888 18.74992122 -1.625 21.125 C-2.08187326 23.08367448 -2.53968604 25.04213128 -3 27 C-3.33 27 -3.66 27 -4 27 C-3.6277754 17.60453769 -2.68359037 9.06344673 0 0 Z " fill="#728395" transform="translate(640,588)"/>
<path d="M0 0 C1.22419163 3.93795909 0.48320272 6.16112237 -1 10 C-1.99 10 -2.98 10 -4 10 C-4 10.66 -4 11.32 -4 12 C-4.66 12 -5.32 12 -6 12 C-6 13.65 -6 15.3 -6 17 C-7.65 17.66 -9.3 18.32 -11 19 C-9.71524695 16.36955699 -8.34825805 13.8342562 -6.8359375 11.328125 C-6.43632813 10.66425781 -6.03671875 10.00039063 -5.625 9.31640625 C-5.2125 8.63449219 -4.8 7.95257812 -4.375 7.25 C-3.95476563 6.55261719 -3.53453125 5.85523438 -3.1015625 5.13671875 C-2.06904254 3.42367428 -1.03470118 1.71172787 0 0 Z " fill="#1C2C3F" transform="translate(592,795)"/>
<path d="M0 0 C0 3.86695678 -1.41909971 6.5088452 -3 10 C-3.66 10 -4.32 10 -5 10 C-5.061875 10.61875 -5.12375 11.2375 -5.1875 11.875 C-6 14 -6 14 -8.5625 15.25 C-9.366875 15.4975 -10.17125 15.745 -11 16 C-9.63312778 12.01328937 -7.84804907 9.11505367 -5 6 C-4.34 6 -3.68 6 -3 6 C-2.87625 5.195625 -2.7525 4.39125 -2.625 3.5625 C-2.41875 2.716875 -2.2125 1.87125 -2 1 C-1.34 0.67 -0.68 0.34 0 0 Z " fill="#53667E" transform="translate(625,600)"/>
<path d="M0 0 C0.66 0 1.32 0 2 0 C2.13277344 0.75925781 2.26554688 1.51851562 2.40234375 2.30078125 C2.57894531 3.29464844 2.75554688 4.28851562 2.9375 5.3125 C3.19853516 6.79169922 3.19853516 6.79169922 3.46484375 8.30078125 C3.95746847 11.08189213 3.95746847 11.08189213 5 14 C4.34 14.66 3.68 15.32 3 16 C2.13153169 14.25705322 1.28069373 12.50531337 0.4375 10.75 C-0.27599609 9.28820312 -0.27599609 9.28820312 -1.00390625 7.796875 C-2.03892246 4.89071185 -2.17328106 3.79535814 -1 1 C-0.67 0.67 -0.34 0.34 0 0 Z " fill="#243445" transform="translate(715,597)"/>
<path d="M0 0 C0.33 0 0.66 0 1 0 C0.9192124 3.60509105 0.80636316 7.20847921 0.6875 10.8125 C0.66494141 11.83666016 0.64238281 12.86082031 0.61914062 13.91601562 C0.5659668 15.39038086 0.5659668 15.39038086 0.51171875 16.89453125 C0.48553467 17.80050049 0.45935059 18.70646973 0.43237305 19.63989258 C-0.06913046 22.3773485 -0.8647772 23.28237607 -3 25 C-2.91621094 23.72382812 -2.83242188 22.44765625 -2.74609375 21.1328125 C-2.64293768 19.46355965 -2.54008901 17.79428779 -2.4375 16.125 C-2.38142578 15.28324219 -2.32535156 14.44148437 -2.26757812 13.57421875 C-2.21923828 12.76855469 -2.17089844 11.96289062 -2.12109375 11.1328125 C-2.05039673 10.01737061 -2.05039673 10.01737061 -1.97827148 8.87939453 C-1.86421725 6.90752923 -1.86421725 6.90752923 -3 5 C-1.625 2.375 -1.625 2.375 0 0 Z " fill="#6A788B" transform="translate(644,563)"/>
<path d="M0 0 C0.66 0.66 1.32 1.32 2 2 C1.26840002 3.82000487 0.51407088 5.63088661 -0.25 7.4375 C-0.66765625 8.44683594 -1.0853125 9.45617187 -1.515625 10.49609375 C-2.00546875 11.32238281 -2.4953125 12.14867187 -3 13 C-4.32 13.33 -5.64 13.66 -7 14 C-6.01 10.7 -5.02 7.4 -4 4 C-2.68 4 -1.36 4 0 4 C0 2.68 0 1.36 0 0 Z " fill="#5C6E85" transform="translate(641,662)"/>
<path d="M0 0 C0.66 0 1.32 0 2 0 C0.71200424 5.10644784 -1.04406843 9.30138217 -3.625 13.9375 C-4.25664063 15.08089844 -4.88828125 16.22429688 -5.5390625 17.40234375 C-6.26222656 18.68818359 -6.26222656 18.68818359 -7 20 C-8.23787968 16.28636096 -7.57224781 15.47846983 -6 12 C-5.64679687 11.11699219 -5.29359375 10.23398437 -4.9296875 9.32421875 C-3.953125 6.8828125 -2.9765625 4.44140625 -2 2 C-1.34 2 -0.68 2 0 2 C0 1.34 0 0.68 0 0 Z " fill="#253E59" transform="translate(646,660)"/>
<path d="M0 0 C0.66 0.33 1.32 0.66 2 1 C1.56816406 1.71671875 1.13632812 2.4334375 0.69140625 3.171875 C-0.39496425 4.98834668 -1.47138359 6.81082775 -2.53515625 8.640625 C-3.03917969 9.50171875 -3.54320312 10.3628125 -4.0625 11.25 C-4.82240234 12.55710937 -4.82240234 12.55710937 -5.59765625 13.890625 C-7 16 -7 16 -9 17 C-8.57781184 15.3501725 -8.13675575 13.70516335 -7.6875 12.0625 C-7.44386719 11.14597656 -7.20023438 10.22945312 -6.94921875 9.28515625 C-6.63597656 8.53105469 -6.32273437 7.77695312 -6 7 C-5.01 6.67 -4.02 6.34 -3 6 C-2.40929986 4.05396726 -2.40929986 4.05396726 -2 2 C-1.34 1.34 -0.68 0.68 0 0 Z " fill="#243A55" transform="translate(641,556)"/>
<path d="M0 0 C6.27 0 12.54 0 19 0 C19 0.33 19 0.66 19 1 C18.11957031 1.03738281 17.23914063 1.07476563 16.33203125 1.11328125 C15.17058594 1.17902344 14.00914062 1.24476563 12.8125 1.3125 C11.66394531 1.37050781 10.51539063 1.42851563 9.33203125 1.48828125 C5.818822 2.02782452 3.82687224 2.87984582 1 5 C0.12177688 7.08533633 0.12177688 7.08533633 0 9 C-0.66 9 -1.32 9 -2 9 C-1.34 6.03 -0.68 3.06 0 0 Z " fill="#364354" transform="translate(512,812)"/>
<path d="M0 0 C0.33 0 0.66 0 1 0 C1 8.91 1 17.82 1 27 C-1.24519581 22.50960837 -1.04965789 19.55712737 -0.625 14.75 C-0.53992188 13.63238281 -0.53992188 13.63238281 -0.453125 12.4921875 C-0.31223742 10.66064892 -0.15748116 8.83018648 0 7 C-0.99 7 -1.98 7 -3 7 C-1.125 1.125 -1.125 1.125 0 0 Z " fill="#112037" transform="translate(670,794)"/>
<path d="M0 0 C0.66 0 1.32 0 2 0 C1.4533512 8.18088206 -0.17123868 16.01785939 -2 24 C-2.33 24 -2.66 24 -3 24 C-3.38063221 21.6739143 -3.71269945 19.33944736 -4 17 C-3.67 16.67 -3.34 16.34 -3 16 C-2.76924918 14.65252916 -2.58846937 13.29622435 -2.4375 11.9375 C-2.293125 10.638125 -2.14875 9.33875 -2 8 C-1.34 8 -0.68 8 0 8 C0 5.36 0 2.72 0 0 Z " fill="#7D8C9C" transform="translate(624,664)"/>
<path d="M0 0 C0.33 0 0.66 0 1 0 C1 2.64 1 5.28 1 8 C1.66 8 2.32 8 3 8 C4.625 9.5 4.625 9.5 6 11 C6.99 10.67 7.98 10.34 9 10 C8.67 10.99 8.34 11.98 8 13 C5.36 12.67 2.72 12.34 0 12 C-1.1671568 8.49852959 -1.13357453 5.67329964 -1 2 C-0.67 1.34 -0.34 0.68 0 0 Z " fill="#304962" transform="translate(613,696)"/>
<path d="M0 0 C0.66 0 1.32 0 2 0 C1.34 3.63 0.68 7.26 0 11 C-1.32 11.33 -2.64 11.66 -4 12 C-4 12.66 -4 13.32 -4 14 C-4.66 14 -5.32 14 -6 14 C-4.125 8.25 -4.125 8.25 -3 6 C-2.34 6 -1.68 6 -1 6 C-0.67 4.02 -0.34 2.04 0 0 Z " fill="#6C7C8E" transform="translate(632,676)"/>
<path d="M0 0 C0.33 0 0.66 0 1 0 C1.125 6.625 1.125 6.625 0 10 C-0.35543427 12.33006911 -0.6913753 14.66327016 -1 17 C-1.99 17.33 -2.98 17.66 -4 18 C-3.61020794 11.44074057 -2.57886807 6.05473373 0 0 Z " fill="#495F7B" transform="translate(621,673)"/>
<path d="M0 0 C0.6875 1.6875 0.6875 1.6875 1 4 C0.05184571 5.69669715 -0.96344932 7.35581617 -2 9 C-3.06604395 11.61221458 -4.06000669 14.243231 -5.03515625 16.890625 C-6 19 -6 19 -8 20 C-7.55791363 14.47392042 -6.13262507 11.50314854 -3 7 C-2.21784412 4.2717496 -2.21784412 4.2717496 -2 2 C-1.34 2 -0.68 2 0 2 C0 1.34 0 0.68 0 0 Z " fill="#364C67" transform="translate(620,598)"/>
<path d="M0 0 C0.66 0 1.32 0 2 0 C2 0.99 2 1.98 2 3 C2.66 2.67 3.32 2.34 4 2 C4 2.99 4 3.98 4 5 C4.66 5.33 5.32 5.66 6 6 C5.01 7.485 5.01 7.485 4 9 C2.0546875 9.29296875 2.0546875 9.29296875 -0.125 9.1875 C-2.043125 9.0946875 -2.043125 9.0946875 -4 9 C-4 8.67 -4 8.34 -4 8 C-2.35 8 -0.7 8 1 8 C0.34 5.69 -0.32 3.38 -1 1 C-0.67 0.67 -0.34 0.34 0 0 Z " fill="#26374B" transform="translate(538,813)"/>
<path d="M0 0 C0.33 0 0.66 0 1 0 C0.53411505 5.70709064 -0.93757784 9.15939723 -4 14 C-5.06528748 11.26980214 -5.07998186 10.20701188 -4.00390625 7.421875 C-3.52824219 6.54015625 -3.05257812 5.6584375 -2.5625 4.75 C-2.08941406 3.85796875 -1.61632812 2.9659375 -1.12890625 2.046875 C-0.75636719 1.37140625 -0.38382813 0.6959375 0 0 Z M-12 14 C-9.69 14 -7.38 14 -5 14 C-7 16 -7 16 -9.625 16.125 C-10.40875 16.08375 -11.1925 16.0425 -12 16 C-12 15.34 -12 14.68 -12 14 Z " fill="#1A334D" transform="translate(629,696)"/>
<path d="M0 0 C0.33 0 0.66 0 1 0 C1.46530864 7.78961124 0.15721701 14.52678392 -2 22 C-2.33 22 -2.66 22 -3 22 C-3.05416188 20.39620659 -3.09286638 18.79188594 -3.125 17.1875 C-3.14820313 16.29417969 -3.17140625 15.40085937 -3.1953125 14.48046875 C-3 12 -3 12 -1 9 C-0.54605448 6.72087062 -0.54605448 6.72087062 -0.375 4.3125 C-0.30023437 3.50425781 -0.22546875 2.69601562 -0.1484375 1.86328125 C-0.09945312 1.24839844 -0.05046875 0.63351562 0 0 Z " fill="#2D445E" transform="translate(621,652)"/>
<path d="M0 0 C0.33 0.66 0.66 1.32 1 2 C0.2578125 3.734375 0.2578125 3.734375 -0.875 5.75 C-2.68408581 9.16854835 -3.61120117 12.11201168 -4 16 C-4.99 16 -5.98 16 -7 16 C-5.78519433 10.22967306 -4.32911189 4.32911189 0 0 Z " fill="#39516B" transform="translate(636,568)"/>
<path d="M0 0 C0.99 0 1.98 0 3 0 C1.53967505 5.31027254 -0.98320986 9.46330032 -4 14 C-4.66 13.34 -5.32 12.68 -6 12 C-5.875 10.0625 -5.875 10.0625 -5 8 C-4.34 7.525625 -3.68 7.05125 -3 6.5625 C-0.74724544 5.12113694 -0.74724544 5.12113694 -0.25 2.3125 C-0.1675 1.549375 -0.085 0.78625 0 0 Z " fill="#6C7C8F" transform="translate(631,584)"/>
<path d="M0 0 C1.97885999 2.96828999 3.25864997 5.77447054 4.625 9.0625 C5.07101562 10.12597656 5.51703125 11.18945312 5.9765625 12.28515625 C7 15 7 15 7 17 C6.34 17 5.68 17 5 17 C4.67 16.34 4.34 15.68 4 15 C3.34 15 2.68 15 2 15 C1.2717552 10.00632136 0.61512818 5.00890086 0 0 Z " fill="#2F3E4F" transform="translate(694,645)"/>
<path d="M0 0 C0.66 0 1.32 0 2 0 C2.75 2.625 2.75 2.625 3 6 C1.1875 9.1875 1.1875 9.1875 -1 12 C-1.66 12.99 -2.32 13.98 -3 15 C-2.35812082 9.86496656 -1.31727753 5.0056546 0 0 Z " fill="#364253" transform="translate(635,488)"/>
<path d="M0 0 C0.66 0.33 1.32 0.66 2 1 C0.02 5.95 -1.96 10.9 -4 16 C-4.66 14.68 -5.32 13.36 -6 12 C-5.67 11.34 -5.34 10.68 -5 10 C-4.34 10 -3.68 10 -3 10 C-2.95101562 9.36191406 -2.90203125 8.72382812 -2.8515625 8.06640625 C-2.77679687 7.24011719 -2.70203125 6.41382813 -2.625 5.5625 C-2.55539062 4.73878906 -2.48578125 3.91507813 -2.4140625 3.06640625 C-2.27742187 2.38449219 -2.14078125 1.70257812 -2 1 C-1.34 0.67 -0.68 0.34 0 0 Z " fill="#28384A" transform="translate(664,792)"/>
<path d="M0 0 C2.11386464 2.11386464 2.97008322 3.79267603 4.1875 6.5 C4.55230469 7.2940625 4.91710937 8.088125 5.29296875 8.90625 C5.52628906 9.5971875 5.75960937 10.288125 6 11 C5.67 11.66 5.34 12.32 5 13 C4.67 12.01 4.34 11.02 4 10 C3.01 10 2.02 10 1 10 C0.63720544 8.71073008 0.28503302 7.41846728 -0.0625 6.125 C-0.35833984 5.04605469 -0.35833984 5.04605469 -0.66015625 3.9453125 C-1 2 -1 2 0 0 Z " fill="#2C3C4F" transform="translate(713,696)"/>
<path d="M0 0 C0.33 1.32 0.66 2.64 1 4 C1.66 4 2.32 4 3 4 C3 5.32 3 6.64 3 8 C2.34 8 1.68 8 1 8 C0.87625 8.804375 0.7525 9.60875 0.625 10.4375 C0.41875 11.283125 0.2125 12.12875 0 13 C-0.99 13.495 -0.99 13.495 -2 14 C-1.03644647 4.58997722 -1.03644647 4.58997722 0 0 Z " fill="#D0DDE6" transform="translate(621,688)"/>
<path d="M0 0 C0.66 0 1.32 0 2 0 C1.52060632 4.71403788 1.03165952 8.66579301 -1 13 C-1.66 13 -2.32 13 -3 13 C-2.88490339 11.58249437 -2.75746342 10.16598831 -2.625 8.75 C-2.55539062 7.96109375 -2.48578125 7.1721875 -2.4140625 6.359375 C-1.98492887 3.914123 -1.21399362 2.15163097 0 0 Z " fill="#63758A" transform="translate(610,624)"/>
<path d="M0 0 C0.99 0.33 1.98 0.66 3 1 C3 1.99 3 2.98 3 4 C2.01 4 1.02 4 0 4 C0 4.66 0 5.32 0 6 C0.66 6.33 1.32 6.66 2 7 C1.34 8.65 0.68 10.3 0 12 C-1.32 12 -2.64 12 -4 12 C-3.52309796 10.37433394 -3.04340334 8.74948689 -2.5625 7.125 C-2.29566406 6.22007812 -2.02882813 5.31515625 -1.75390625 4.3828125 C-1 2 -1 2 0 0 Z " fill="#1D3042" transform="translate(604,582)"/>
<path d="M0 0 C2 3 2 3 1.8125 6.5 C1.03631971 9.84354588 0.68478605 11.01559292 -2 13 C-2.125 8.25 -2.125 8.25 -1 6 C-1.66 5.67 -2.32 5.34 -3 5 C-1.125 1.125 -1.125 1.125 0 0 Z " fill="#13253D" transform="translate(565,587)"/>
<path d="M0 0 C0.66 1.32 1.32 2.64 2 4 C3.65 4 5.3 4 7 4 C7 4.66 7 5.32 7 6 C5.824375 5.9690625 5.824375 5.9690625 4.625 5.9375 C2.01885039 5.81315937 2.01885039 5.81315937 0 7 C-0.66 6.67 -1.32 6.34 -2 6 C-2.625 3.4375 -2.625 3.4375 -3 1 C-2.01 0.67 -1.02 0.34 0 0 Z " fill="#293A4C" transform="translate(652,817)"/>
<path d="M0 0 C1.18914114 3.71606605 1.42281576 7.12418883 1 11 C-1.5 12.9375 -1.5 12.9375 -4 14 C-3.52188823 12.22888156 -3.0424722 10.45811517 -2.5625 8.6875 C-2.29566406 7.70136719 -2.02882813 6.71523438 -1.75390625 5.69921875 C-1.21920575 3.78482474 -0.62855462 1.88566385 0 0 Z " fill="#354656" transform="translate(563,693)"/>
<path d="M0 0 C1.59273572 3.18547144 0.76164121 5.60190847 0 9 C-1.9375 11.4375 -1.9375 11.4375 -4 13 C-4.66 13 -5.32 13 -6 13 C-4.25 7.25 -4.25 7.25 -2 5 C-1.29289322 3.35008418 -0.62056011 1.68437744 0 0 Z " fill="#6A7A8C" transform="translate(654,634)"/>
<path d="M0 0 C0.66 0.99 1.32 1.98 2 3 C0.68981426 8.13156083 -0.55390245 12.03593497 -5 15 C-1.92482916 4.44191344 -1.92482916 4.44191344 0 0 Z " fill="#303E4D" transform="translate(620,539)"/>
<path d="M0 0 C0.66 0 1.32 0 2 0 C2.99 2.97 3.98 5.94 5 9 C4.01 8.01 3.02 7.02 2 6 C1.01 6.495 1.01 6.495 0 7 C-0.66 5.68 -1.32 4.36 -2 3 C-1.34 2.01 -0.68 1.02 0 0 Z " fill="#293A4A" transform="translate(521,790)"/>
<path d="M0 0 C0.33 0.66 0.66 1.32 1 2 C0.00390625 4.6015625 0.00390625 4.6015625 -1.4375 7.625 C-1.91058594 8.62789062 -2.38367188 9.63078125 -2.87109375 10.6640625 C-3.24363281 11.43492187 -3.61617187 12.20578125 -4 13 C-4.33 13 -4.66 13 -5 13 C-5.602537 6.97463002 -5.602537 6.97463002 -3.88671875 4.19921875 C-2.65378147 2.74400545 -1.33191067 1.36520843 0 0 Z " fill="#1B334E" transform="translate(607,620)"/>
<path d="M0 0 C0.66 0.33 1.32 0.66 2 1 C0.07776117 6.1596937 -1.80186938 9.25572134 -6 13 C-5.34215037 9.70319035 -4.10579427 7.15882078 -2.4375 4.25 C-1.98246094 3.45078125 -1.52742187 2.6515625 -1.05859375 1.828125 C-0.53458984 0.92320312 -0.53458984 0.92320312 0 0 Z " fill="#0D2640" transform="translate(649,662)"/>
<path d="M0 0 C0.95465783 2.16967689 1.14401212 3.56328793 0.3984375 5.82421875 C-0.35870385 7.5684743 -1.17609198 9.28627131 -2 11 C-2.33 11 -2.66 11 -3 11 C-3.125 4.375 -3.125 4.375 -2 1 C-1.34 0.67 -0.68 0.34 0 0 Z " fill="#122335" transform="translate(558,610)"/>
<path d="M0 0 C0.66 0.33 1.32 0.66 2 1 C1.125 6.75 1.125 6.75 0 9 C-0.66 9 -1.32 9 -2 9 C-2.25 3.375 -2.25 3.375 0 0 Z " fill="#536A80" transform="translate(634,575)"/>
<path d="M0 0 C0.66 0.33 1.32 0.66 2 1 C1.46930939 4.82097239 0.50298434 7.06171403 -2 10 C-2 7.36 -2 4.72 -2 2 C-1.34 2 -0.68 2 0 2 C0 1.34 0 0.68 0 0 Z " fill="#102136" transform="translate(579,800)"/>
<path d="M0 0 C0.66 0 1.32 0 2 0 C2.29296875 5.95703125 2.29296875 5.95703125 2 8 C1.01 8.99 0.02 9.98 -1 11 C-0.67 7.37 -0.34 3.74 0 0 Z " fill="#3B526C" transform="translate(648,560)"/>
<path d="M0 0 C0.33 1.32 0.66 2.64 1 4 C0.34 4 -0.32 4 -1 4 C-1 5.65 -1 7.3 -1 9 C-2.65 9.66 -4.3 10.32 -6 11 C-4.18690997 7.22272911 -2.0926741 3.62730178 0 0 Z " fill="#323F51" transform="translate(587,803)"/>
<path d="M0 0 C0.66 0 1.32 0 2 0 C3.60355101 3.50776784 4.22036864 6.14354879 4 10 C1.16625119 6.79663178 0.4794463 4.21912747 0 0 Z " fill="#273444" transform="translate(731,642)"/>
<path d="M0 0 C0.66 0 1.32 0 2 0 C0.6062718 4.43458973 -1.60582235 6.87378374 -5 10 C-5 6 -5 6 -3.0625 3.875 C-2.0415625 2.946875 -2.0415625 2.946875 -1 2 C-0.67 1.34 -0.34 0.68 0 0 Z " fill="#28405A" transform="translate(628,580)"/>
<path d="M0 0 C0.75 1.6875 0.75 1.6875 1 4 C-0.9375 6.75 -0.9375 6.75 -3 9 C-3.66 8.67 -4.32 8.34 -5 8 C-1.125 1.125 -1.125 1.125 0 0 Z " fill="#102641" transform="translate(636,557)"/>
<path d="M0 0 C0.66 1.32 1.32 2.64 2 4 C1.01 4 0.02 4 -1 4 C-0.67 5.32 -0.34 6.64 0 8 C-0.99 8 -1.98 8 -3 8 C-3 4.42424104 -1.91159393 2.94704065 0 0 Z " fill="#2F3D4F" transform="translate(597,787)"/>
<path d="M0 0 C3.63 0 7.26 0 11 0 C11.33 1.32 11.66 2.64 12 4 C11.34 4.66 10.68 5.32 10 6 C9.67 4.35 9.34 2.7 9 1 C6.03 1 3.06 1 0 1 C0 0.67 0 0.34 0 0 Z " fill="#091F39" transform="translate(576,789)"/>
<path d="M0 0 C0 2.62113708 -0.31292445 4.50935112 -1 7 C-3.64 7 -6.28 7 -9 7 C-9 6.67 -9 6.34 -9 6 C-7.88625 5.9071875 -7.88625 5.9071875 -6.75 5.8125 C-3.1814261 4.75814862 -2.07754772 3.00090227 0 0 Z " fill="#263E58" transform="translate(625,703)"/>
<path d="M0 0 C0 3.86695678 -1.41909971 6.5088452 -3 10 C-3.66 8.68 -4.32 7.36 -5 6 C-4.34 6 -3.68 6 -3 6 C-2.87625 5.195625 -2.7525 4.39125 -2.625 3.5625 C-2.41875 2.716875 -2.2125 1.87125 -2 1 C-1.34 0.67 -0.68 0.34 0 0 Z " fill="#74859B" transform="translate(625,600)"/>
<path d="M0 0 C1.2380014 3.57644848 0.74926071 6.33694766 0 10 C-0.99 10.33 -1.98 10.66 -3 11 C-2.32829194 7.1936543 -1.27253436 3.64793184 0 0 Z " fill="#465462" transform="translate(598,597)"/>
<path d="M0 0 C2.36841312 1.57894208 4.06745228 2.9754262 6 5 C5.67 5.99 5.34 6.98 5 8 C4.34 8 3.68 8 3 8 C3 7.01 3 6.02 3 5 C2.34 5 1.68 5 1 5 C0.67 3.35 0.34 1.7 0 0 Z " fill="#28384B" transform="translate(673,501)"/>
<path d="M0 0 C0.99 0 1.98 0 3 0 C2.6875 2.375 2.6875 2.375 2 5 C1.01 5.66 0.02 6.32 -1 7 C-0.67 4.69 -0.34 2.38 0 0 Z " fill="#203143" transform="translate(665,803)"/>
<path d="M0 0 C0.33 0 0.66 0 1 0 C1 2.31 1 4.62 1 7 C-0.32 7 -1.64 7 -3 7 C-1.125 1.125 -1.125 1.125 0 0 Z " fill="#273244" transform="translate(670,794)"/>
<path d="M0 0 C0.66 0.66 1.32 1.32 2 2 C1.625 4.125 1.625 4.125 1 6 C0.34 5.34 -0.32 4.68 -1 4 C-2.32 4.99 -3.64 5.98 -5 7 C-3.75023244 3.34683329 -3.32901247 2.21934164 0 0 Z " fill="#DBE0E5" transform="translate(587,796)"/>
<path d="M0 0 C0.97591583 3.38317487 0.85856655 5.5657338 0 9 C-0.66 9 -1.32 9 -2 9 C-2.33 10.32 -2.66 11.64 -3 13 C-4 11 -4 11 -3.22265625 8.3984375 C-2.83980469 7.40070312 -2.45695313 6.40296875 -2.0625 5.375 C-1.68222656 4.37210938 -1.30195312 3.36921875 -0.91015625 2.3359375 C-0.60980469 1.56507813 -0.30945313 0.79421875 0 0 Z " fill="#485363" transform="translate(589,621)"/>
<path d="M0 0 C0.99 0 1.98 0 3 0 C3.125 5.75 3.125 5.75 2 8 C1.34 8 0.68 8 0 8 C0 5.36 0 2.72 0 0 Z " fill="#50657C" transform="translate(635,616)"/>
<path d="M0 0 C0.66 0 1.32 0 2 0 C4 2 4 2 5 4 C4.34 4 3.68 4 3 4 C3 4.66 3 5.32 3 6 C3.66 6.33 4.32 6.66 5 7 C4.01 8.485 4.01 8.485 3 10 C2.01 6.7 1.02 3.4 0 0 Z " fill="#2D3C4E" transform="translate(719,614)"/>
<path d="M0 0 C0.66 0.33 1.32 0.66 2 1 C1.01 4.3 0.02 7.6 -1 11 C-1.33 11 -1.66 11 -2 11 C-2.19622241 6.78121808 -1.80230168 3.82989106 0 0 Z " fill="#263243" transform="translate(581,549)"/>
<path d="M0 0 C2.56616632 3.84924948 2.55097676 6.4349304 3 11 C2.01 11 1.02 11 0 11 C0 7.37 0 3.74 0 0 Z " fill="#283849" transform="translate(652,533)"/>
<path d="M0 0 C0.33 0.99 0.66 1.98 1 3 C0.67 3.66 0.34 4.32 0 5 C-0.66 5 -1.32 5 -2 5 C-2 5.66 -2 6.32 -2 7 C-2.99 7 -3.98 7 -5 7 C-4.67 6.01 -4.34 5.02 -4 4 C-3.34 4 -2.68 4 -2 4 C-1.34 2.68 -0.68 1.36 0 0 Z " fill="#506279" transform="translate(652,643)"/>
<path d="M0 0 C0.66 0.99 1.32 1.98 2 3 C1.34 3 0.68 3 0 3 C0.33 4.65 0.66 6.3 1 8 C-0.98 8.99 -0.98 8.99 -3 10 C-2.01 6.7 -1.02 3.4 0 0 Z " fill="#39485B" transform="translate(594,608)"/>
<path d="M0 0 C1.46911544 3.81970016 0.52561108 6.30641529 -1 10 C-1.66 10.66 -2.32 11.32 -3 12 C-2.40075776 7.80530429 -1.42500059 3.99000166 0 0 Z " fill="#3F4D5B" transform="translate(608,570)"/>
<path d="M0 0 C0.33 0 0.66 0 1 0 C0.67 2.97 0.34 5.94 0 9 C-0.99 8.34 -1.98 7.68 -3 7 C-1.125 1.125 -1.125 1.125 0 0 Z " fill="#A1B4C8" transform="translate(644,563)"/>
<path d="M0 0 C2.45823172 3.68734758 3.01242616 6.69699971 4 11 C3.34 10.67 2.68 10.34 2 10 C2 9.34 2 8.68 2 8 C1.34 8 0.68 8 0 8 C0 5.36 0 2.72 0 0 Z " fill="#4A5868" transform="translate(648,522)"/>
<path d="M0 0 C1 4 1 4 0 6 C0.66 6 1.32 6 2 6 C1 8 1 8 -3 10 C-2.01 6.7 -1.02 3.4 0 0 Z " fill="#BCC4CC" transform="translate(597,512)"/>
<path d="M0 0 C1.5625 1.25 1.5625 1.25 3 3 C2.6875 5.1875 2.6875 5.1875 2 7 C1.67 6.34 1.34 5.68 1 5 C0.01 5 -0.98 5 -2 5 C-1.34 3.35 -0.68 1.7 0 0 Z " fill="#D2D7DC" transform="translate(581,803)"/>
<path d="M0 0 C1.65 0 3.3 0 5 0 C3.37660195 1.70884005 1.70680947 3.37446717 0 5 C-0.66 5 -1.32 5 -2 5 C-1.34 3.35 -0.68 1.7 0 0 Z " fill="#D4E1E7" transform="translate(671,781)"/>
<path d="M0 0 C0.99 0 1.98 0 3 0 C3.625 2.375 3.625 2.375 4 5 C3.34 5.66 2.68 6.32 2 7 C0.5393715 4.35261084 0 3.10551666 0 0 Z " fill="#2D3B4E" transform="translate(748,685)"/>
<path d="M0 0 C0.66 0.66 1.32 1.32 2 2 C2.66 1.34 3.32 0.68 4 0 C3.67 1.65 3.34 3.3 3 5 C1.68 5.33 0.36 5.66 -1 6 C-0.67 4.02 -0.34 2.04 0 0 Z " fill="#011027" transform="translate(571,675)"/>
<path d="M0 0 C0.33 1.32 0.66 2.64 1 4 C0.34 4 -0.32 4 -1 4 C-1 6.64 -1 9.28 -1 12 C-1.33 12 -1.66 12 -2 12 C-2.05395478 10.37536158 -2.09277195 8.75021459 -2.125 7.125 C-2.14820313 6.22007812 -2.17140625 5.31515625 -2.1953125 4.3828125 C-2 2 -2 2 0 0 Z " fill="#5E7288" transform="translate(625,660)"/>
<path d="M0 0 C0.99 0 1.98 0 3 0 C4.35439668 2.70879335 4.06501451 5.00933268 4 8 C1.84622436 5.37801226 0.59927826 3.35595828 0 0 Z " fill="#1D2A3E" transform="translate(736,656)"/>
<path d="M0 0 C0 1.65 0 3.3 0 5 C-0.66 5 -1.32 5 -2 5 C-2 5.66 -2 6.32 -2 7 C-2.66 7 -3.32 7 -4 7 C-3.625 4.0625 -3.625 4.0625 -3 1 C-1 0 -1 0 0 0 Z " fill="#455E77" transform="translate(614,617)"/>
<path d="M0 0 C1.80125336 2.70188004 3.00243753 4.93057703 4 8 C3.67 8.99 3.34 9.98 3 11 C0.60236815 8.60236815 0.65719414 7.66726502 0.375 4.375 C0.30023437 3.55773437 0.22546875 2.74046875 0.1484375 1.8984375 C0.09945312 1.27195312 0.05046875 0.64546875 0 0 Z " fill="#535D69" transform="translate(670,581)"/>
<path d="M0 0 C0.66 0 1.32 0 2 0 C1.49287967 3.71888239 0.88391785 6.73454239 -1 10 C-2.54578627 6.90842747 -1.60277633 4.31526981 -1 1 C-0.67 0.67 -0.34 0.34 0 0 Z " fill="#8292A3" transform="translate(636,574)"/>
<path d="M0 0 C0.66 0.33 1.32 0.66 2 1 C1.67 2.98 1.34 4.96 1 7 C0.34 7 -0.32 7 -1 7 C-1.04254356 5.00045254 -1.04080783 2.99958364 -1 1 C-0.67 0.67 -0.34 0.34 0 0 Z " fill="#53677D" transform="translate(645,567)"/>
<path d="M0 0 C0.33 0.66 0.66 1.32 1 2 C-0.65 4.31 -2.3 6.62 -4 9 C-4.33 8.34 -4.66 7.68 -5 7 C-3.56742037 4.27127689 -2.18277634 2.18277634 0 0 Z " fill="#2C415C" transform="translate(637,564)"/>
</svg>
